<svg xmlns="http://www.w3.org/2000/svg" width="400" height="50" viewBox="0 0 400 50">
  <g id="Group_2600" data-name="Group 2600" transform="translate(-600 -913)">
    <rect id="Rectangle_2281" data-name="Rectangle 2281" width="400" height="50" rx="25" transform="translate(600 913)" fill="#cb3939"/>
    <g id="Group_2479" data-name="Group 2479" transform="translate(23 16)">
      <path id="Path_694" data-name="Path 694" d="M11.568-4.768a13.415,13.415,0,0,1,.112-1.984c-.688.048-1.152.064-1.888.064H8.96a11.941,11.941,0,0,1-1.92-.1V-4.72a8.759,8.759,0,0,1,1.632-.1h.864v2.608a4.775,4.775,0,0,1-2.72.72,3.349,3.349,0,0,1-2.784-1.1A5.65,5.65,0,0,1,2.944-6.336,5.008,5.008,0,0,1,4.128-9.984,3.381,3.381,0,0,1,6.56-10.96,2.623,2.623,0,0,1,9.5-8.992L11.7-9.584a4.51,4.51,0,0,0-1.184-1.9,5.226,5.226,0,0,0-3.68-1.376,6.067,6.067,0,0,0-3.552.944C1.616-10.8.72-8.848.72-6.3a7.516,7.516,0,0,0,1.5,4.864A5.6,5.6,0,0,0,6.768.4,9.475,9.475,0,0,0,9.12.1a10.146,10.146,0,0,0,2.56-1.1,13.223,13.223,0,0,1-.112-2.08ZM18.032.5c2.848,0,4.72-1.952,4.72-4.912a4.474,4.474,0,0,0-4.736-4.848,4.508,4.508,0,0,0-4.768,4.88A4.5,4.5,0,0,0,18.032.5Zm-.016-8.1c1.7,0,2.672,1.184,2.672,3.248C20.688-2.4,19.664-1.2,18-1.2s-2.688-1.216-2.688-3.184C15.312-6.384,16.336-7.6,18.016-7.6ZM28.752.5c2.848,0,4.72-1.952,4.72-4.912a4.474,4.474,0,0,0-4.736-4.848,4.508,4.508,0,0,0-4.768,4.88A4.5,4.5,0,0,0,28.752.5Zm-.016-8.1c1.7,0,2.672,1.184,2.672,3.248C31.408-2.4,30.384-1.2,28.72-1.2s-2.688-1.216-2.688-3.184C26.032-6.384,27.056-7.6,28.736-7.6ZM34.88,1.664A4.642,4.642,0,0,0,38.9,3.328,6.04,6.04,0,0,0,42.672,2.3C43.6,1.52,44.016.288,44.016-1.632v-5.36a14.864,14.864,0,0,1,.112-2H41.984v.736a3.848,3.848,0,0,0,.032.528A3.374,3.374,0,0,0,38.96-9.136c-2.592,0-4.272,1.792-4.272,4.56,0,2.736,1.632,4.48,4.176,4.48A3.641,3.641,0,0,0,42-1.552,4.359,4.359,0,0,1,41.584.576a2.876,2.876,0,0,1-2.624,1.2A2.71,2.71,0,0,1,36.48.56Zm1.9-6.192c0-1.9.992-3.1,2.592-3.1a2.418,2.418,0,0,1,1.552.576,2.95,2.95,0,0,1,.96,2.368,3.389,3.389,0,0,1-.448,1.824A2.678,2.678,0,0,1,39.216-1.6a2.452,2.452,0,0,1-1.7-.72A3.088,3.088,0,0,1,36.784-4.528Zm9.36-8.016a14.428,14.428,0,0,1,.112,2.08v8.576a15.493,15.493,0,0,1-.112,2.08h2.32a16.48,16.48,0,0,1-.112-2.08v-8.56a14.822,14.822,0,0,1,.112-2.1ZM59.088-3.872c-.032-.368-.032-.416-.032-.448a6.577,6.577,0,0,0-.464-2.432A4.065,4.065,0,0,0,54.608-9.28c-2.736,0-4.512,1.936-4.512,4.9C50.1-1.392,51.888.5,54.72.5a4.544,4.544,0,0,0,3.3-1.232,4.5,4.5,0,0,0,.976-1.472L57.1-2.816a2.325,2.325,0,0,1-.464.832,2.53,2.53,0,0,1-1.92.8,2.515,2.515,0,0,1-2-.9,2.974,2.974,0,0,1-.592-1.792ZM52.176-5.456a2.4,2.4,0,0,1,2.4-2.176,2.282,2.282,0,0,1,1.728.64,2.511,2.511,0,0,1,.7,1.536ZM66.1-3.472h3.792v-1.84H66.1V-9.1H64.24v3.792H60.448v1.84H64.24V.32H66.1Zm5.84-5.6a23.225,23.225,0,0,1,2.656-.32c3.472-.256,4.1-.32,5.392-.512A7.075,7.075,0,0,0,77.76-8.288a5.571,5.571,0,0,0-1.52,3.76A4.281,4.281,0,0,0,78.528-.672,9.626,9.626,0,0,0,82.272.384c.272.048.352.048.544.1L83.1-1.7c-.16.016-.3.016-.32.016A9.71,9.71,0,0,1,80.4-2.1,2.687,2.687,0,0,1,78.272-4.7c0-1.616,1.2-3.216,3.232-4.272a7.156,7.156,0,0,1,3.168-.864,2.478,2.478,0,0,1,.336.016L84.9-11.856a11.787,11.787,0,0,1-1.84.144c-4.432.208-7.088.352-7.984.4-2.352.16-2.352.16-2.64.16-.08,0-.256,0-.608-.016Zm9.632.864a10.178,10.178,0,0,1,1.424,2.192l1.216-.64a8.58,8.58,0,0,0-1.424-2.16Zm4.4.656A8.385,8.385,0,0,0,84.56-9.616l-1.168.576a10.6,10.6,0,0,1,1.376,2.128ZM98.5-.928v1.1h2.064a10.968,10.968,0,0,1-.064-1.392v-9.152c0-.592.016-.912.048-1.328-.368.032-.656.048-1.344.048H90.112c-.64,0-.976-.016-1.36-.048a10.625,10.625,0,0,1,.064,1.344v9.168A10.691,10.691,0,0,1,88.752.192h2.064V-.928Zm0-1.824h-7.68V-9.84H98.5ZM115.52-10.88l.848-.3a7.515,7.515,0,0,0-1.232-2.064l-1.28.448a8.771,8.771,0,0,1,1.1,1.84,4.4,4.4,0,0,1-.8.048l-3.5.048c-.336.016-.592.016-.768.032.224-.416.336-.656.624-1.3a2.222,2.222,0,0,1,.32-.576l-2.192-.448a6.027,6.027,0,0,1-.816,2.128,12.308,12.308,0,0,1-4.144,4.64,4.251,4.251,0,0,1,1.552,1.376,15.475,15.475,0,0,0,3.744-4.112l4.816-.064a12.731,12.731,0,0,1-4.672,6.752,13.889,13.889,0,0,1-3.5,1.872,4.93,4.93,0,0,1,1.36,1.68,15.937,15.937,0,0,0,5.7-4.048,16.6,16.6,0,0,0,3.28-6.176,2.844,2.844,0,0,1,.4-.96Zm2.8-.928a8.344,8.344,0,0,0-1.232-1.984l-1.248.48a10.292,10.292,0,0,1,1.2,2.032ZM129.9-12.992A12.8,12.8,0,0,1,126.928-10a23.367,23.367,0,0,1-8.4,4.16A6.018,6.018,0,0,1,119.6-4.016a25.924,25.924,0,0,0,5.712-2.592V-.976a9,9,0,0,1-.1,1.728h2.24a12.1,12.1,0,0,1-.08-1.776V-7.856a28.294,28.294,0,0,0,3.776-3.3,6.589,6.589,0,0,1,.592-.56Zm5.728,2.72a16.8,16.8,0,0,1,4.08,3.248l1.376-1.744a22.661,22.661,0,0,0-4.128-3.088Zm.56,10.56a5.664,5.664,0,0,1,1.056-.272,17.282,17.282,0,0,0,6.1-2.4,14.042,14.042,0,0,0,5.072-6.272,6.9,6.9,0,0,1-1.7-1.568,13.361,13.361,0,0,1-1.632,3.2,10.69,10.69,0,0,1-4.752,3.92A15.246,15.246,0,0,1,135.6-1.92Z" transform="translate(725 928.5)" fill="#fff"/>
      <g id="Group_2478" data-name="Group 2478">
        <path id="Path_683" data-name="Path 683" d="M22.373,16.235l-.112-.492H11.25V20.25h6.377a5.71,5.71,0,0,1-5.913,4.472,6.743,6.743,0,0,1-4.8-1.779,6.829,6.829,0,0,1-2.032-4.95A6.838,6.838,0,0,1,6.82,13.1a6.632,6.632,0,0,1,4.83-1.786A6.087,6.087,0,0,1,15.736,12.8l3.375-3.354a11.427,11.427,0,0,0-7.573-2.9h0A11.659,11.659,0,0,0,3.262,9.9,11.67,11.67,0,0,0,0,18a11.533,11.533,0,0,0,3.136,7.966,11.981,11.981,0,0,0,8.641,3.495,10.663,10.663,0,0,0,7.755-3.255,11.418,11.418,0,0,0,2.981-7.924A13.18,13.18,0,0,0,22.373,16.235Z" transform="translate(679 903.539)" fill="#fff"/>
        <path id="Path_684" data-name="Path 684" d="M36,15.75H31.992V11.742H29.109V15.75H25.1v2.883h4.008v4.008h2.883V18.633H36Z" transform="translate(679 903.539)" fill="#fff"/>
      </g>
    </g>
  </g>
</svg>
