<svg xmlns="http://www.w3.org/2000/svg" width="21.234" height="20" viewBox="0 0 21.234 20"><path d="M74.836,26.118h0Z" transform="translate(-71.965 -25.687)" fill="#4cac26"/><path d="M20.671,15.346a1.153,1.153,0,0,0-1.141-.022l-1.808.979-2.369-1.284a1.157,1.157,0,0,0-1.1,0L11.886,16.3,9.518,15.019a1.156,1.156,0,0,0-1.1,0L6.051,16.3l-1.806-.979a1.153,1.153,0,0,0-1.7,1.014V31.489H3.727v-15.1l1.773.962a1.155,1.155,0,0,0,1.1,0l2.368-1.284,2.368,1.284a1.155,1.155,0,0,0,1.1,0L14.8,16.071l2.37,1.284a1.155,1.155,0,0,0,1.1,0l1.776-.962V31.821a1.873,1.873,0,0,1-1.873,1.873H3.956a2.77,2.77,0,0,1-2.77-2.77V18.574H0v12.35A3.956,3.956,0,0,0,3.956,34.88H18.175a3.059,3.059,0,0,0,3.059-3.059V16.337A1.154,1.154,0,0,0,20.671,15.346Z" transform="translate(0 -14.88)" fill="#4cac26"/><rect width="4.466" height="4.816" transform="translate(14.496 10.74)" fill="#4cac26"/><rect width="6.584" height="0.732" transform="translate(5.284 10.575)" fill="#4cac26"/><rect width="6.584" height="0.732" transform="translate(5.284 14.847)" fill="#4cac26"/><rect width="6.584" height="0.732" transform="translate(5.284 12.711)" fill="#4cac26"/><path d="M126.912,142.273v-2.05h.024l1.157,2.05a.085.085,0,0,0,.082.048h.571l.048-.048V139.1l-.048-.048H128.2l-.048.048v2.054h-.024l-1.152-2.054a.089.089,0,0,0-.082-.048h-.576l-.048.048v3.168l.048.048h.542Z" transform="translate(-120.978 -133.824)" fill="#4cac26"/><path d="M208.938,139.666h1.407l.048-.048V139.1l-.048-.048h-2.093l-.048.048v3.168l.048.048h2.093l.048-.048v-.514l-.048-.048h-1.407l-.029-.029v-.677l.029-.029h1.171l.048-.048v-.509l-.048-.048h-1.171l-.029-.029V139.7Z" transform="translate(-199.488 -133.824)" fill="#4cac26"/><path d="M276.218,139.057H275.6a.051.051,0,0,0-.058.048l-.451,2.05h-.01l-.576-2.05-.058-.048h-.418a.062.062,0,0,0-.063.048l-.557,2.05h-.01l-.47-2.05a.053.053,0,0,0-.057-.048h-.619c-.034,0-.043.019-.039.048l.845,3.168.058.048h.48a.063.063,0,0,0,.063-.048l.571-2.03h.01l.566,2.03a.062.062,0,0,0,.063.048h.48a.059.059,0,0,0,.063-.048l.84-3.168C276.261,139.076,276.252,139.057,276.218,139.057Z" transform="translate(-260.709 -133.824)" fill="#4cac26"/><path d="M384.131,140.431a1.386,1.386,0,0,1-.854-.336l-.072,0-.365.418,0,.081a1.925,1.925,0,0,0,1.258.446c.845,0,1.281-.437,1.281-1.027s-.355-.9-1.027-.989l-.173-.024c-.374-.053-.509-.173-.509-.36,0-.206.149-.355.437-.355a1.351,1.351,0,0,1,.758.249l.067-.014.293-.437c.024-.034.019-.052-.009-.072a1.845,1.845,0,0,0-1.109-.341,1.019,1.019,0,0,0-1.157,1c0,.576.37.888,1.032.979l.173.024c.389.053.5.173.5.365C384.664,140.273,384.472,140.431,384.131,140.431Z" transform="translate(-366.56 -132.498)" fill="#4cac26"/></svg>