<svg xmlns="http://www.w3.org/2000/svg" width="20" height="20" viewBox="0 0 20 20"><path d="M6.106,306.077l-1.194-1.194c-.719.431-2.308,1.143-2.308,1.143a1.143,1.143,0,0,0-.688.853l-.8,3.749-.461.462a.639.639,0,1,0,.63.63l.462-.461,3.749-.8a1.143,1.143,0,0,0,.853-.688s.712-1.588,1.143-2.308l-1.194-1.194Zm-1.291,2.464a.7.7,0,1,1,0-.987A.7.7,0,0,1,4.814,308.541Z" transform="translate(-0.003 -292.366)" fill="#f50223"/><path d="M176.814,319.436l-.131-.13-.157-.157Z" transform="translate(-169.622 -306.667)" fill="#f50223"/><path d="M144.1,239.109a.754.754,0,0,1-.662.2l-.346.345,1.365,1.366,1.642,1.641.345-.345a.755.755,0,0,1,.2-.662l1.179-1.179-2.546-2.546Z" transform="translate(-137.354 -228.396)" fill="#f50223"/><path d="M225.68.815c-1.177-1.177-2.461-1.07-3.8.268s-5.184,6.125-6.09,7.031l2.589,2.59c.907-.906,5.694-4.752,7.031-6.09S226.857,1.992,225.68.815Zm-1.168,2.078-4.03,4.03a.252.252,0,0,1-.356,0l-.553-.553a.253.253,0,0,1,0-.357l4.03-4.03a.252.252,0,0,1,.357,0l.553.553A.253.253,0,0,1,224.512,2.893Z" transform="translate(-206.494 -0.001)" fill="#f50223"/></svg>