<svg xmlns="http://www.w3.org/2000/svg" width="25.858" height="20" viewBox="0 0 25.858 20"><path d="M25.859,62.89a1.965,1.965,0,1,0-3.929,0,2.028,2.028,0,0,0,.552,1.4c-1.336,2.836-3.89,3.826-5.869,2.93-1.763-.8-2.413-3.083-2.633-4.853a2.321,2.321,0,0,0,1.209-2.05,2.26,2.26,0,1,0-4.519,0,2.321,2.321,0,0,0,1.209,2.05c-.22,1.77-.87,4.054-2.633,4.853-1.979.9-4.533-.094-5.869-2.93a2.028,2.028,0,0,0,.552-1.4,1.989,1.989,0,0,0-1.964-2.012,2.016,2.016,0,0,0-.254,4.008L3.975,73.38H21.884l2.264-8.494A2,2,0,0,0,25.859,62.89Z" transform="translate(0 -58)" fill="#ead327"/><path d="M77.534,395.169a1.428,1.428,0,0,1-1.494,1.352H58.493A1.427,1.427,0,0,1,57,395.169v-.112a1.428,1.428,0,0,1,1.493-1.353H76.04a1.428,1.428,0,0,1,1.494,1.353Z" transform="translate(-54.337 -376.521)" fill="#ead327"/></svg>