<svg xmlns="http://www.w3.org/2000/svg" width="20" height="20" viewBox="0 0 20 20"><rect width="0.875" height="2.362" transform="translate(0.619 20) rotate(-135)" fill="#387eb9"/><path d="M.17,450.467l1.67-1.658.607.619L.783,451.08Z" transform="translate(-0.164 -431.092)" fill="#387eb9"/><path d="M51.429,147.594l-7.956,9.57,2.026,2.026,9.57-7.956ZM45.5,159.19l9.57-7.956" transform="translate(-41.902 -140.76)" fill="#387eb9"/><path d="M43.642,157.3l7.957-9.558,3.626,3.64-9.563,7.939Z" transform="translate(-42.065 -140.907)" fill="#387eb9"/><path d="M273.2,41.266l4.273,4.273a4.291,4.291,0,0,0,2.971-1.152l-6.092-6.092A4.292,4.292,0,0,0,273.2,41.266Z" transform="translate(-261.831 -36.911)" fill="#387eb9"/><path d="M277.642,45.69l-4.267-4.271a4.285,4.285,0,0,1,1.152-2.959l6.08,6.092a4.325,4.325,0,0,1-2.916,1.138Z" transform="translate(-261.997 -37.071)" fill="#387eb9"/><path d="M335.9,1.261a4.315,4.315,0,0,0-5.293-.632l5.925,5.925A4.315,4.315,0,0,0,335.9,1.261Z" transform="translate(-317.166 0)" fill="#387eb9"/><path d="M330.783.852a4.418,4.418,0,0,1,2.241-.614A4.3,4.3,0,0,1,336.7,6.769Z" transform="translate(-317.33 -0.229)" fill="#387eb9"/></svg>