<svg xmlns="http://www.w3.org/2000/svg" width="400" height="50" viewBox="0 0 400 50">
  <g id="Group_2599" data-name="Group 2599" transform="translate(-600 -843)">
    <rect id="Rectangle_2218" data-name="Rectangle 2218" width="400" height="50" rx="25" transform="translate(600 843)" fill="#3561a7"/>
    <g id="Group_2477" data-name="Group 2477" transform="translate(12.85 15.792)">
      <path id="Path_693" data-name="Path 693" d="M2.32-7.312v5.424A17.183,17.183,0,0,1,2.208.192H4.5a15.814,15.814,0,0,1-.112-2.08V-7.312h.784a13.77,13.77,0,0,1,1.776.1V-9.088a17.572,17.572,0,0,1-1.808.1H4.384v-.656c0-1.1.32-1.488,1.248-1.488a2.649,2.649,0,0,1,1.424.384l.432-1.68a5.785,5.785,0,0,0-1.984-.32c-2.176,0-3.184.928-3.184,2.912v.848H1.664a10.485,10.485,0,0,1-1.5-.1v1.872a10.883,10.883,0,0,1,1.52-.1ZM14.7.192h2.16a12.869,12.869,0,0,1-.128-2v-4.3a2.687,2.687,0,0,0-.752-2.208,4.16,4.16,0,0,0-3.152-.944,4.791,4.791,0,0,0-3.056.816A3.343,3.343,0,0,0,8.512-6.672L10.56-6.3a1.743,1.743,0,0,1,.64-1.024,2.887,2.887,0,0,1,1.664-.464c1.216,0,1.84.48,1.84,1.408v.816a12.1,12.1,0,0,0-4.512.64A2.838,2.838,0,0,0,8.384-2.336C8.384-.656,9.568.352,11.52.352A5.661,5.661,0,0,0,13.008.16,3.47,3.47,0,0,0,14.7-.848Zm0-3.568a1.907,1.907,0,0,1-.576,1.408A3.249,3.249,0,0,1,11.9-1.12c-.9,0-1.456-.464-1.456-1.216,0-1.248,1.2-1.776,4.256-1.84ZM27.1-6.384a5.326,5.326,0,0,0-.56-1.168A4.138,4.138,0,0,0,22.96-9.28a4.381,4.381,0,0,0-3.216,1.216,5.174,5.174,0,0,0-1.36,3.7c0,2.96,1.824,4.864,4.64,4.864a4.158,4.158,0,0,0,3.52-1.616,4.48,4.48,0,0,0,.672-1.36l-1.984-.4a2.236,2.236,0,0,1-.32.8,2.142,2.142,0,0,1-1.84.9c-1.616,0-2.608-1.232-2.608-3.232,0-1.984.976-3.216,2.544-3.216a2.013,2.013,0,0,1,1.648.736,2.883,2.883,0,0,1,.5.976ZM37.376-3.872c-.032-.368-.032-.416-.032-.448a6.577,6.577,0,0,0-.464-2.432A4.065,4.065,0,0,0,32.9-9.28c-2.736,0-4.512,1.936-4.512,4.9,0,2.992,1.792,4.88,4.624,4.88A4.544,4.544,0,0,0,36.3-.736a4.5,4.5,0,0,0,.976-1.472l-1.888-.608a2.325,2.325,0,0,1-.464.832,2.53,2.53,0,0,1-1.92.8,2.515,2.515,0,0,1-2-.9,2.974,2.974,0,0,1-.592-1.792ZM30.464-5.456a2.4,2.4,0,0,1,2.4-2.176,2.282,2.282,0,0,1,1.728.64,2.511,2.511,0,0,1,.7,1.536ZM41.088.192V-.592c0-.192,0-.368-.016-.576A3.48,3.48,0,0,0,44.256.416,4.1,4.1,0,0,0,47.328-.736,5.23,5.23,0,0,0,48.64-4.48c0-2.976-1.584-4.72-4.272-4.72a3.73,3.73,0,0,0-3.3,1.616c.016-.544.032-.944.032-1.2v-1.6a16.307,16.307,0,0,1,.112-2.16H38.96a18.659,18.659,0,0,1,.112,2.144v8.432A16.8,16.8,0,0,1,38.96.192ZM46.56-4.48C46.56-2.544,45.52-1.3,43.9-1.3a2.788,2.788,0,0,1-1.68-.592,3.337,3.337,0,0,1-1.056-2.528,3.446,3.446,0,0,1,.784-2.224,2.855,2.855,0,0,1,2.176-.88C45.6-7.52,46.56-6.32,46.56-4.48ZM54.656.5c2.848,0,4.72-1.952,4.72-4.912A4.474,4.474,0,0,0,54.64-9.264a4.508,4.508,0,0,0-4.768,4.88A4.5,4.5,0,0,0,54.656.5ZM54.64-7.6c1.7,0,2.672,1.184,2.672,3.248,0,1.952-1.024,3.152-2.688,3.152s-2.688-1.216-2.688-3.184C51.936-6.384,52.96-7.6,54.64-7.6ZM65.376.5c2.848,0,4.72-1.952,4.72-4.912A4.474,4.474,0,0,0,65.36-9.264a4.508,4.508,0,0,0-4.768,4.88A4.5,4.5,0,0,0,65.376.5ZM65.36-7.6c1.7,0,2.672,1.184,2.672,3.248,0,1.952-1.024,3.152-2.688,3.152s-2.688-1.216-2.688-3.184C62.656-6.384,63.68-7.6,65.36-7.6Zm6.368-4.944a14.675,14.675,0,0,1,.112,2.1v8.56a15.653,15.653,0,0,1-.112,2.08h2.256a11.584,11.584,0,0,1-.112-2.048V-2.9l1.312-1.248,1.728,2.528A7.706,7.706,0,0,1,77.968.192h2.848A12.257,12.257,0,0,1,79.36-1.664l-2.7-3.7,2.272-2.16c.688-.656.688-.656,1.6-1.472H77.536a7.366,7.366,0,0,1-1.264,1.424l-2.4,2.384v-5.264a14.972,14.972,0,0,1,.112-2.1Zm10.7,3.472a23.225,23.225,0,0,1,2.656-.32c3.472-.256,4.1-.32,5.392-.512a7.075,7.075,0,0,0-2.224,1.616,5.571,5.571,0,0,0-1.52,3.76A4.281,4.281,0,0,0,89.024-.672,9.626,9.626,0,0,0,92.768.384c.272.048.352.048.544.1L93.6-1.7c-.16.016-.3.016-.32.016A9.71,9.71,0,0,1,90.9-2.1,2.687,2.687,0,0,1,88.768-4.7c0-1.616,1.2-3.216,3.232-4.272a7.156,7.156,0,0,1,3.168-.864,2.478,2.478,0,0,1,.336.016l-.112-2.032a11.787,11.787,0,0,1-1.84.144c-4.432.208-7.088.352-7.984.4-2.352.16-2.352.16-2.64.16-.08,0-.256,0-.608-.016Zm9.632.864a10.178,10.178,0,0,1,1.424,2.192l1.216-.64a8.58,8.58,0,0,0-1.424-2.16Zm4.4.656a8.385,8.385,0,0,0-1.408-2.064l-1.168.576a10.6,10.6,0,0,1,1.376,2.128ZM108.992-.928v1.1h2.064a10.968,10.968,0,0,1-.064-1.392v-9.152c0-.592.016-.912.048-1.328-.368.032-.656.048-1.344.048h-9.088c-.64,0-.976-.016-1.36-.048a10.625,10.625,0,0,1,.064,1.344v9.168A10.691,10.691,0,0,1,99.248.192h2.064V-.928Zm0-1.824h-7.68V-9.84h7.68Zm17.024-8.128.848-.3a7.515,7.515,0,0,0-1.232-2.064l-1.28.448a8.771,8.771,0,0,1,1.1,1.84,4.4,4.4,0,0,1-.8.048l-3.5.048c-.336.016-.592.016-.768.032.224-.416.336-.656.624-1.3a2.222,2.222,0,0,1,.32-.576l-2.192-.448a6.027,6.027,0,0,1-.816,2.128,12.308,12.308,0,0,1-4.144,4.64,4.251,4.251,0,0,1,1.552,1.376,15.475,15.475,0,0,0,3.744-4.112l4.816-.064a12.731,12.731,0,0,1-4.672,6.752,13.889,13.889,0,0,1-3.5,1.872,4.93,4.93,0,0,1,1.36,1.68,15.937,15.937,0,0,0,5.7-4.048,16.6,16.6,0,0,0,3.28-6.176,2.844,2.844,0,0,1,.4-.96Zm2.8-.928a8.345,8.345,0,0,0-1.232-1.984l-1.248.48a10.292,10.292,0,0,1,1.2,2.032ZM140.4-12.992A12.8,12.8,0,0,1,137.424-10a23.367,23.367,0,0,1-8.4,4.16A6.018,6.018,0,0,1,130.1-4.016a25.924,25.924,0,0,0,5.712-2.592V-.976a9,9,0,0,1-.1,1.728h2.24a12.1,12.1,0,0,1-.08-1.776V-7.856a28.293,28.293,0,0,0,3.776-3.3,6.593,6.593,0,0,1,.592-.56Zm5.728,2.72a16.8,16.8,0,0,1,4.08,3.248l1.376-1.744a22.661,22.661,0,0,0-4.128-3.088Zm.56,10.56a5.664,5.664,0,0,1,1.056-.272,17.282,17.282,0,0,0,6.1-2.4,14.042,14.042,0,0,0,5.072-6.272,6.9,6.9,0,0,1-1.7-1.568,13.361,13.361,0,0,1-1.632,3.2,10.69,10.69,0,0,1-4.752,3.92A15.246,15.246,0,0,1,146.1-1.92Z" transform="translate(726 858.5)" fill="#fff"/>
      <path id="Icon_awesome-facebook-square" data-name="Icon awesome-facebook-square" d="M23.7,2.25H2.844A2.844,2.844,0,0,0,0,5.094V25.948a2.844,2.844,0,0,0,2.844,2.844h8.131V19.768H7.243V15.521h3.732V12.284c0-3.682,2.192-5.716,5.55-5.716a22.612,22.612,0,0,1,3.289.287v3.614H17.961a2.124,2.124,0,0,0-2.395,2.295v2.758h4.075l-.652,4.247H15.567v9.024H23.7a2.844,2.844,0,0,0,2.844-2.844V5.094A2.844,2.844,0,0,0,23.7,2.25Z" transform="translate(689.15 836.958)" fill="#fff"/>
    </g>
  </g>
</svg>
