<svg xmlns="http://www.w3.org/2000/svg" width="50" height="30" viewBox="0 0 50 30">
  <g id="Group_2599" data-name="Group 2599" transform="translate(-133 -510)">
    <g id="Group_2502" data-name="Group 2502" transform="translate(-4)">
      <rect id="Rectangle_2297" data-name="Rectangle 2297" width="50" height="30" rx="15" transform="translate(137 510)" fill="#41ba00"/>
      <g id="Group_2499" data-name="Group 2499" transform="translate(4 -61)">
        <rect id="Rectangle_2298" data-name="Rectangle 2298" width="28" height="26" transform="translate(143 573)" fill="#fff"/>
        <path id="Icon_awesome-line" data-name="Icon awesome-line" d="M18.221,13.781v4.761a.212.212,0,0,1-.214.214h-.763a.221.221,0,0,1-.174-.087l-2.183-2.946v2.826a.212.212,0,0,1-.214.214h-.763a.212.212,0,0,1-.214-.214V13.788a.212.212,0,0,1,.214-.214h.757a.2.2,0,0,1,.174.094l2.183,2.946V13.788a.212.212,0,0,1,.214-.214H18a.212.212,0,0,1,.221.208Zm-5.491-.214h-.763a.212.212,0,0,0-.214.214v4.761a.212.212,0,0,0,.214.214h.763a.212.212,0,0,0,.214-.214V13.781A.216.216,0,0,0,12.73,13.567Zm-1.842,3.991H8.806V13.781a.212.212,0,0,0-.214-.214H7.828a.212.212,0,0,0-.214.214v4.761a.2.2,0,0,0,.06.147.226.226,0,0,0,.147.06h3.06a.212.212,0,0,0,.214-.214v-.763a.214.214,0,0,0-.208-.214Zm11.35-3.991h-3.06a.216.216,0,0,0-.214.214v4.761a.216.216,0,0,0,.214.214h3.06a.212.212,0,0,0,.214-.214v-.763a.212.212,0,0,0-.214-.214H20.156v-.8h2.083a.212.212,0,0,0,.214-.214v-.77a.212.212,0,0,0-.214-.214H20.156v-.8h2.083a.212.212,0,0,0,.214-.214v-.763a.225.225,0,0,0-.214-.214ZM30,7.721v19.1a5.454,5.454,0,0,1-5.471,5.424H5.424A5.459,5.459,0,0,1,0,26.779V7.674A5.459,5.459,0,0,1,5.471,2.25h19.1A5.454,5.454,0,0,1,30,7.721Zm-4.125,8.21c0-4.888-4.9-8.866-10.922-8.866S4.031,11.042,4.031,15.931c0,4.379,3.884,8.049,9.134,8.746,1.279.275,1.132.743.844,2.464-.047.275-.221,1.078.944.589a35.3,35.3,0,0,0,8.585-6.342A7.911,7.911,0,0,0,25.875,15.931Z" transform="translate(142 568.75)" fill="#41ba00"/>
      </g>
    </g>
  </g>
</svg>
