<svg xmlns="http://www.w3.org/2000/svg" width="35.501" height="36.592" viewBox="0 0 35.501 36.592">
  <g id="Group_2597" data-name="Group 2597" transform="translate(-661.645 -239.493)">
    <g id="お金を受け取るアイコン_円編" data-name="お金を受け取るアイコン　円編" transform="translate(654.009 239.495)">
      <path id="Path_690" data-name="Path 690" d="M23.211,260.14h5.975a2.173,2.173,0,1,0,0-4.346H20.495c-5.434,0-7.154,2.264-9.055,4.164l-3.451,3.014a1.029,1.029,0,0,0-.353.774v10.017a.343.343,0,0,0,.566.259l6.669-5.716a1.031,1.031,0,0,1,.852-.23l10.392,1.888a2.737,2.737,0,0,0,2.074-.459s13.265-9.223,14.242-10.039h0a2.046,2.046,0,0,0,.067-3.032c-.858-.936-2.457-.737-3.523.053-.977.815-7.653,5.2-7.653,5.2H23.211l-.026.012a.774.774,0,1,1,.051-1.547Z" transform="translate(0 -237.515)" fill="#fab310"/>
      <path id="Path_691" data-name="Path 691" d="M302.184,0a5.44,5.44,0,0,0-4.658,2.633,7.985,7.985,0,0,1,5.242,7.485c0,.253-.015.5-.038.752A5.449,5.449,0,0,0,302.184,0Z" transform="translate(-269.172 0)" fill="#fab310"/>
      <path id="Path_692" data-name="Path 692" d="M178.347,54.451a6.227,6.227,0,1,0,6.227,6.227A6.227,6.227,0,0,0,178.347,54.451Zm2.475,5.715h-1.705l-.183.286v.682h1.888V62.1h-1.888v1.463H177.76V62.1h-1.889v-.969h1.889v-.681l-.183-.287h-1.706V59.34h1.173l-1-1.552h.994l1.3,2.031,1.307-2.031h.994l-1,1.552h1.171v.826Z" transform="translate(-152.729 -50.561)" fill="#fab310"/>
    </g>
  </g>
</svg>
