<svg xmlns="http://www.w3.org/2000/svg" width="19.404" height="20" viewBox="0 0 19.404 20"><g transform="translate(-7.636 0.002)"><path d="M16.148,258.169h3.266a1.188,1.188,0,1,0,0-2.376h-4.75a5.814,5.814,0,0,0-4.949,2.276l-1.886,1.647a.562.562,0,0,0-.193.423v5.475a.187.187,0,0,0,.309.142l3.645-3.124a.563.563,0,0,1,.466-.126l5.68,1.032a1.5,1.5,0,0,0,1.133-.251s7.25-5.041,7.784-5.487h0a1.118,1.118,0,0,0,.037-1.657,1.488,1.488,0,0,0-1.926.029c-.534.446-4.183,2.843-4.183,2.843H16.149l-.014.007a.423.423,0,1,1,.028-.845Z" transform="translate(0 -245.804)" fill="#fab310"/><path d="M300.072,0a2.973,2.973,0,0,0-2.546,1.439,4.364,4.364,0,0,1,2.865,4.091c0,.139-.008.275-.021.411a2.978,2.978,0,0,0-.3-5.941Z" transform="translate(-278.566)" fill="#fab310"/><path d="M175.523,54.451a3.4,3.4,0,1,0,3.4,3.4A3.4,3.4,0,0,0,175.523,54.451Zm1.353,3.124h-.932l-.1.156V58.1h1.032v.529h-1.032v.8H175.2v-.8H174.17v-.529H175.2v-.372l-.1-.157h-.933v-.452h.641l-.544-.848h.543l.713,1.11.714-1.11h.543l-.544.848h.64v.452Z" transform="translate(-158.059 -52.326)" fill="#fab310"/></g></svg>