<svg xmlns="http://www.w3.org/2000/svg" width="214.2" height="77.476" viewBox="0 0 214.2 77.476"><g transform="translate(-1180.799 -1812.12)"><g transform="translate(975.199 1789)"><path d="M-72.468-22.752c.324,0,.468-.072.576-.288a.655.655,0,0,0-.072-.792c-.4-.5-.936-1.116-1.548-1.764a.489.489,0,0,0-.828.072l-1.368,1.872H-82.62c.4-1.4.72-2.7.972-3.924,1.008-.252,1.476-.54,1.476-.828,0-.468-.972-.864-2.952-1.188a.525.525,0,0,0-.684.468,35.673,35.673,0,0,1-3.636,12.78c-.144.324-.144.54.072.648a.539.539,0,0,0,.792-.108,24.956,24.956,0,0,0,3.636-6.948h2.52v8.208h-7.2c-.432,0-.612.216-.468.5a.659.659,0,0,0,.648.4h6.984a28.1,28.1,0,0,1-.684,4.932,17.955,17.955,0,0,1-6.8,9.936c-.288.252-.36.468-.18.684a.515.515,0,0,0,.756.18,16.678,16.678,0,0,0,8.388-10.98A21.2,21.2,0,0,1-73.62-1.584a1.157,1.157,0,0,0,1.08.864c.792,0,1.224-.432,1.224-1.332s-.612-1.98-1.8-3.312a23.9,23.9,0,0,0-5.652-4.572,26.95,26.95,0,0,0,.432-3.708h6.624c.324,0,.5-.072.612-.288a.6.6,0,0,0-.072-.792,20.822,20.822,0,0,0-1.584-1.8.471.471,0,0,0-.792.036l-1.4,1.944H-78.3v-8.208Zm12.888-.972V-4H-67.9V-23.724Zm-7.92-.9c-.468-.252-1.08-.54-1.836-.9-.4-.18-.684,0-.684.4V.252a.514.514,0,0,0,.576.576h1.008c.36,0,.54-.18.54-.576V-3.1h8.316V-.36A.53.53,0,0,0-59,.216H-58a.5.5,0,0,0,.54-.576V-23.04l1.008-.684a.435.435,0,0,0,.216-.324c0-.324-.612-1.008-1.836-2.016a.546.546,0,0,0-.828.036l-1.08,1.4ZM-52.488,2.268a.549.549,0,0,0,.756.072,16,16,0,0,0,5.616-5.076c1.008,0,1.512-.18,1.512-.468,0-.4-.756-.972-2.3-1.764a.464.464,0,0,0-.756.252,17,17,0,0,1-4.68,6.3C-52.6,1.872-52.668,2.088-52.488,2.268Zm9.468-7.236c-.18.216-.108.468.18.684A11.821,11.821,0,0,1-39.456.36c.324.828.72,1.26,1.224,1.26.828,0,1.224-.432,1.224-1.3,0-1.836-1.764-3.6-5.328-5.4C-42.66-5.22-42.876-5.184-43.02-4.968ZM-27.576-1.8c0,.756-.432,1.152-1.26,1.152-1.512,0-3.06-.108-4.608-.252-.4-.036-.612.108-.612.36a.568.568,0,0,0,.54.612l.576.072a20.631,20.631,0,0,1,2.916.72,1.347,1.347,0,0,1,.864.9.624.624,0,0,0,.648.5c2.016-.18,3.024-1.188,3.024-2.988V-19.4h5a.6.6,0,0,0,.612-.324.6.6,0,0,0-.072-.756,21.905,21.905,0,0,0-1.548-1.8c-.252-.288-.54-.252-.792.072L-23.472-20.3H-25.6v-6.84c.972-.324,1.476-.648,1.476-.972,0-.432-.972-.792-2.952-1.008a.512.512,0,0,0-.612.576V-20.3h-9.36c-.432,0-.648.18-.54.468a.63.63,0,0,0,.648.432h8.748A41.545,41.545,0,0,1-38.376-4.644c-.288.252-.36.5-.18.684a.537.537,0,0,0,.792.072,38.532,38.532,0,0,0,10.188-12.1ZM-47.664-14.76v-5.364h6.984v5.364Zm0,6.588V-13.86h6.984v5.688Zm6.984-17.964v5.112h-6.984v-5.112Zm-6.8-.9c-.576-.324-1.116-.612-1.548-.828-.36-.18-.648,0-.648.432V-5.976A.5.5,0,0,0-49.1-5.4h.9c.36,0,.54-.18.54-.576v-1.3h6.984v1.08a.514.514,0,0,0,.576.576h.9a.5.5,0,0,0,.54-.576V-25.56l.936-.648a.355.355,0,0,0,.216-.324c0-.288-.54-.9-1.692-1.836a.555.555,0,0,0-.828.108l-.936,1.224Zm59.292,1.98a2.343,2.343,0,0,1,1.692.72,2.3,2.3,0,0,1,.9,1.872,2.548,2.548,0,0,1-.684,1.728,2.335,2.335,0,0,1-1.908.864,2.515,2.515,0,0,1-1.728-.648,2.452,2.452,0,0,1-.864-1.944,2.49,2.49,0,0,1,.648-1.692A2.608,2.608,0,0,1,11.808-25.056Zm0-1.26a3.709,3.709,0,0,0-2.592,1.044,3.584,3.584,0,0,0-1.3,2.808,3.674,3.674,0,0,0,1.008,2.592,3.729,3.729,0,0,0,2.88,1.3A3.674,3.674,0,0,0,14.4-19.584a3.818,3.818,0,0,0,1.26-2.88,3.736,3.736,0,0,0-1.008-2.592A3.8,3.8,0,0,0,11.808-26.316Zm-8.388,5.9a.618.618,0,0,0-.756.972,33.438,33.438,0,0,1,6.588,7.128,24.709,24.709,0,0,1,2.268,4.32c.432,1.008.648,2.052,1.044,3.06a1.277,1.277,0,0,0,2.376-.936,29.317,29.317,0,0,0-4.644-8.28A35.594,35.594,0,0,0,3.42-20.412Zm-5.832,1.44a1.243,1.243,0,0,0-2.484,0A12,12,0,0,1-8.82-10.044,86.032,86.032,0,0,1-16.128-3.78c-.576.54.108,1.44.72,1.008A81.819,81.819,0,0,0-7.236-9.036,13.539,13.539,0,0,0-2.412-18.972Zm46.836,6.84c3.888,0,5.076-2.628,5.148-2.736a.891.891,0,0,0-1.656-.648c-.036.072-.864,1.584-3.492,1.584H23.976a.9.9,0,0,0,0,1.8ZM72.252-22.464a.155.155,0,0,1-.144-.144,20.312,20.312,0,0,0,.18-2.952c-.108-1.4-2.412-1.476-2.34.072a9.974,9.974,0,0,1-.4,4c-1.728,4.32-6.264,6.984-10.26,9.72-.576.432-.036,1.44.648,1.008,4.068-2.412,9.648-5.112,11.7-10.08a.243.243,0,0,1,.216-.144h8.388a.446.446,0,0,1,.432.468c-.4,4.824-3.1,8.676-7.092,11.916C69.876-5.472,65.412-3.24,60.876-1.116c-.648.324-.216,1.44.5,1.116A63.119,63.119,0,0,0,75.024-7.344c4.464-3.348,7.92-7.92,8.244-13.86v-.072a1.117,1.117,0,0,0-1.116-1.188Z" transform="translate(295 66)" fill="#fff"/><path d="M9.285,9.433a4.35,4.35,0,0,0-2.944,2.811L0,31.266l1,1,10.2-10.2A3.293,3.293,0,1,1,12.739,23.6L2.536,33.8l1,1,19.022-6.341a4.35,4.35,0,0,0,2.811-2.944l1.068-3.78,1.84-6.511-8.7-8.7Zm24.56-4.392L29.759.956a3.264,3.264,0,0,0-4.616,0L21.3,4.8,30,13.5l3.844-3.844a3.264,3.264,0,0,0,0-4.616Z" transform="translate(385 34)" fill="#fff"/><path d="M0,0H180" transform="translate(205.6 72.4)" fill="#fff" stroke="#fff" stroke-width="1"/><path d="M-57.066-2.868a.175.175,0,0,0-.24.12,2.906,2.906,0,0,1-2.9,2.3,2.888,2.888,0,0,1-2.376-1.14,4.3,4.3,0,0,1-.9-2.82,5.1,5.1,0,0,1,.6-2.532,2.779,2.779,0,0,1,2.592-1.512,2.7,2.7,0,0,1,2.112.9,2.9,2.9,0,0,1,.66,1.3.187.187,0,0,0,.2.168c.132,0,.192-.06.192-.18V-8.3a.167.167,0,0,0-.192-.192c-.12,0-.18.06-.192.192-.036.2-.1.3-.192.3a.825.825,0,0,1-.336-.168,3.922,3.922,0,0,0-2.316-.708,3.819,3.819,0,0,0-2.808,1.14,4.69,4.69,0,0,0-1.3,3.432A4.487,4.487,0,0,0-63.186-.936,3.816,3.816,0,0,0-60.366.18a3.475,3.475,0,0,0,2.244-.756A4.073,4.073,0,0,0-56.85-2.6a.186.186,0,0,0-.132-.24Zm11.1,2.58q0-.162-.18-.18a1.87,1.87,0,0,1-.744-.156c-.216-.12-.324-.372-.324-.768v-5.88c0-.42.1-.672.288-.78a3,3,0,0,1,.78-.18c.12-.012.18-.06.18-.156a.168.168,0,0,0-.18-.192h-2.988c-.12,0-.18.06-.18.156a.173.173,0,0,0,.18.192,2.555,2.555,0,0,1,.72.18.8.8,0,0,1,.372.78V-4.74h-4.524V-7.284c0-.444.12-.708.36-.8a3.009,3.009,0,0,1,.684-.144c.12-.012.18-.06.18-.156a.168.168,0,0,0-.18-.192h-2.9c-.12,0-.192.06-.192.156a.18.18,0,0,0,.18.192,2.424,2.424,0,0,1,.732.168c.216.108.312.372.312.78v5.892q0,.63-.36.792a2.007,2.007,0,0,1-.684.132c-.108.012-.18.072-.18.168a.168.168,0,0,0,.192.18h2.9q.18,0,.18-.144a.183.183,0,0,0-.18-.2,2.045,2.045,0,0,1-.744-.156c-.2-.108-.3-.36-.3-.768V-4.26h4.524v2.868q0,.63-.36.792a1.878,1.878,0,0,1-.672.132c-.12.012-.18.072-.18.168a.159.159,0,0,0,.18.18h2.928C-46.026-.12-45.966-.18-45.966-.288Zm5.712,0q0-.162-.18-.18a1.908,1.908,0,0,1-.732-.156c-.216-.108-.324-.36-.324-.768V-7.284c0-.432.132-.7.384-.8a2.742,2.742,0,0,1,.672-.144c.12-.012.18-.06.18-.156a.168.168,0,0,0-.18-.192h-2.94c-.12,0-.192.06-.192.156a.18.18,0,0,0,.18.192,2.059,2.059,0,0,1,.744.168c.2.1.3.36.3.78v5.892c0,.432-.108.7-.336.792a2.845,2.845,0,0,1-.708.132c-.108.012-.18.072-.18.168a.168.168,0,0,0,.192.18h2.94C-40.314-.12-40.254-.18-40.254-.288Zm8.7-2.4c-.108,0-.168.072-.18.192a2.076,2.076,0,0,1-.708,1.584,3.671,3.671,0,0,1-1.92.36h-2.76l5.412-7.476a.4.4,0,0,0,.072-.228v-.132a.168.168,0,0,0-.18-.192h-5.664a.174.174,0,0,0-.192.18l-.144,1.92c0,.12.048.192.156.192a.2.2,0,0,0,.216-.18,2.093,2.093,0,0,1,.612-1.284,3.466,3.466,0,0,1,2.064-.42h2.16L-37.95-.816a.346.346,0,0,0-.084.24V-.3a.168.168,0,0,0,.192.18h6.108a.168.168,0,0,0,.192-.18l.144-2.2C-31.386-2.616-31.446-2.688-31.554-2.688Zm4.584-.852,1.524-3.852L-23.91-3.54Zm6.1,3.252q0-.162-.18-.18a1.3,1.3,0,0,1-1.1-.864l-2.916-7.236a.22.22,0,0,0-.216-.144H-25.3a.22.22,0,0,0-.216.144L-28.374-1.4a1.294,1.294,0,0,1-1.248.948h.12c-.132,0-.192.06-.192.156,0,.12.06.18.192.18h2.436c.132,0,.192-.048.192-.144a.177.177,0,0,0-.192-.192c-.576-.024-.852-.156-.852-.408a1.558,1.558,0,0,1,.132-.528l.648-1.692h3.384l.672,1.632a1.65,1.65,0,0,1,.12.576c0,.252-.288.4-.864.42-.12,0-.192.06-.192.156a.168.168,0,0,0,.192.18h2.76C-20.934-.12-20.874-.18-20.874-.288Zm5.04,0q0-.162-.18-.18a1.908,1.908,0,0,1-.732-.156c-.216-.108-.324-.36-.324-.768V-7.284c0-.432.132-.7.384-.8a2.742,2.742,0,0,1,.672-.144c.12-.012.18-.06.18-.156a.168.168,0,0,0-.18-.192h-2.94c-.12,0-.192.06-.192.156a.18.18,0,0,0,.18.192,2.059,2.059,0,0,1,.744.168c.2.1.3.36.3.78v5.892c0,.432-.108.7-.336.792a2.845,2.845,0,0,1-.708.132c-.108.012-.18.072-.18.168a.168.168,0,0,0,.192.18h2.94C-15.894-.12-15.834-.18-15.834-.288Zm4.884-3.36a.177.177,0,0,0-.192-.192H-13.35a.171.171,0,0,0-.192.192v.276c0,.12.06.18.192.18h2.208a.168.168,0,0,0,.192-.18Zm4.32-3.624c0-.48.168-.756.492-.852a2.74,2.74,0,0,1,.576-.06h.372c1.656,0,2.5.648,2.5,1.944s-.924,1.92-2.772,1.92H-6.63Zm-2.052-1.14a.177.177,0,0,0,.18.18,1.837,1.837,0,0,1,.816.216c.156.108.228.348.228.744v5.88q0,.63-.36.792a2.6,2.6,0,0,1-.672.132c-.12.012-.192.072-.192.168a.168.168,0,0,0,.192.18h2.964q.18,0,.18-.144a.183.183,0,0,0-.18-.2,1.906,1.906,0,0,1-.768-.156C-6.522-.744-6.63-1-6.63-1.392V-3.864h1.512c2.244,0,3.36-.816,3.36-2.448A2,2,0,0,0-2.274-7.7,3.436,3.436,0,0,0-4.926-8.58H-8.49C-8.61-8.58-8.682-8.52-8.682-8.412ZM2.31-3.54,3.834-7.392,5.37-3.54Zm6.1,3.252q0-.162-.18-.18a1.3,1.3,0,0,1-1.1-.864L4.206-8.568a.22.22,0,0,0-.216-.144H3.978a.22.22,0,0,0-.216.144L.906-1.4A1.294,1.294,0,0,1-.342-.456h.12c-.132,0-.192.06-.192.156,0,.12.06.18.192.18H2.214c.132,0,.192-.048.192-.144a.177.177,0,0,0-.192-.192c-.576-.024-.852-.156-.852-.408a1.558,1.558,0,0,1,.132-.528l.648-1.692H5.526L6.2-1.452a1.65,1.65,0,0,1,.12.576c0,.252-.288.4-.864.42-.12,0-.192.06-.192.156a.168.168,0,0,0,.192.18h2.76C8.346-.12,8.406-.18,8.406-.288Zm3.756-7c0-.48.168-.768.492-.852a2.74,2.74,0,0,1,.576-.06h.456c1.548,0,2.328.6,2.328,1.812S15.09-4.56,13.242-4.56h-1.08Zm5.784,7c0-.108-.06-.156-.18-.18a1.169,1.169,0,0,1-.972-.7c-.456-.876-.78-1.464-.972-1.776a3,3,0,0,0-1.356-1.284V-4.26a3.161,3.161,0,0,0,1.44-.4,1.925,1.925,0,0,0,1.008-1.812,1.862,1.862,0,0,0-1.044-1.7,3.921,3.921,0,0,0-1.956-.408H10.3c-.12,0-.192.06-.192.156a.18.18,0,0,0,.18.192,1.837,1.837,0,0,1,.816.216c.156.108.228.348.228.744v5.88q0,.63-.36.792a2.6,2.6,0,0,1-.672.132c-.12.012-.192.072-.192.168a.168.168,0,0,0,.192.18h2.94q.18,0,.18-.144a.183.183,0,0,0-.18-.2,2.021,2.021,0,0,1-.732-.144.806.806,0,0,1-.348-.78V-4.14h.852a1.938,1.938,0,0,1,1.632.912A14.023,14.023,0,0,1,16.17-.264a.22.22,0,0,0,.216.144h1.38C17.886-.12,17.946-.18,17.946-.288Zm9.852,0q0-.162-.18-.18a1.973,1.973,0,0,1-1.332-.756L23.142-5l2.616-2.472A2.658,2.658,0,0,1,27.2-8.22c.12-.024.18-.072.18-.168a.177.177,0,0,0-.192-.192H24.618c-.12,0-.18.06-.18.156,0,.12.06.18.192.18.468.036.708.156.708.348a.6.6,0,0,1-.24.4L21.75-4.272v-3c0-.444.12-.708.36-.816a3.255,3.255,0,0,1,.72-.144c.12-.012.192-.06.192-.156a.177.177,0,0,0-.192-.192h-3c-.12,0-.18.06-.18.156a.173.173,0,0,0,.18.192,2.651,2.651,0,0,1,.756.18.815.815,0,0,1,.348.792v5.868c0,.432-.12.7-.348.792a2.023,2.023,0,0,1-.7.132c-.12.012-.18.072-.18.168a.159.159,0,0,0,.18.18h2.94c.12,0,.192-.048.192-.144a.192.192,0,0,0-.192-.2,1.887,1.887,0,0,1-.756-.156c-.216-.12-.324-.372-.324-.768v-2.34l.8-.768,2.5,3.06c.288.36.432.576.432.672,0,.192-.264.288-.768.312-.132,0-.192.06-.192.156a.159.159,0,0,0,.18.18h2.9C27.726-.12,27.8-.18,27.8-.288Zm2.544-1.068a.656.656,0,0,0-.456.192.634.634,0,0,0-.192.468.608.608,0,0,0,.192.456.608.608,0,0,0,.456.192A.634.634,0,0,0,30.81-.24.656.656,0,0,0,31-.7a.684.684,0,0,0-.192-.468A.684.684,0,0,0,30.342-1.356ZM41.07-2.868a.175.175,0,0,0-.24.12,2.906,2.906,0,0,1-2.9,2.3,2.888,2.888,0,0,1-2.376-1.14,4.3,4.3,0,0,1-.9-2.82,5.1,5.1,0,0,1,.6-2.532,2.779,2.779,0,0,1,2.592-1.512,2.7,2.7,0,0,1,2.112.9,2.9,2.9,0,0,1,.66,1.3.187.187,0,0,0,.2.168c.132,0,.192-.06.192-.18V-8.3a.167.167,0,0,0-.192-.192c-.12,0-.18.06-.192.192-.036.2-.1.3-.192.3a.825.825,0,0,1-.336-.168,3.922,3.922,0,0,0-2.316-.708,3.819,3.819,0,0,0-2.808,1.14,4.69,4.69,0,0,0-1.3,3.432A4.487,4.487,0,0,0,34.95-.936,3.816,3.816,0,0,0,37.77.18a3.475,3.475,0,0,0,2.244-.756A4.073,4.073,0,0,0,41.286-2.6a.186.186,0,0,0-.132-.24ZM47.754-8.46a2.706,2.706,0,0,1,2.208,1.068,4.73,4.73,0,0,1,.9,3.048,4.685,4.685,0,0,1-.8,2.88,2.737,2.737,0,0,1-2.3,1.2,2.737,2.737,0,0,1-2.508-1.488,5.239,5.239,0,0,1-.612-2.64,4.761,4.761,0,0,1,.792-2.856A2.716,2.716,0,0,1,47.754-8.46Zm0-.42a3.846,3.846,0,0,0-2.82,1.14,4.606,4.606,0,0,0-1.3,3.372,4.585,4.585,0,0,0,1.308,3.42A3.838,3.838,0,0,0,47.754.192a3.782,3.782,0,0,0,2.8-1.128,4.632,4.632,0,0,0,1.308-3.456,4.588,4.588,0,0,0-1.3-3.348A3.819,3.819,0,0,0,47.754-8.88ZM64.614-.288q0-.162-.18-.18A2.03,2.03,0,0,1,63.7-.624c-.2-.108-.312-.372-.312-.792V-7.272c0-.432.12-.7.36-.8a2.135,2.135,0,0,1,.684-.156c.12-.012.18-.06.18-.156a.168.168,0,0,0-.18-.192H62.358a.22.22,0,0,0-.216.144l-2.676,7.02-2.7-7.02a.21.21,0,0,0-.216-.144H54.39c-.132,0-.192.06-.192.156a.173.173,0,0,0,.18.192,2.444,2.444,0,0,1,.756.156c.2.108.312.384.312.816V-1.4c0,.432-.108.7-.348.8a1.991,1.991,0,0,1-.672.132c-.12.012-.18.072-.18.168,0,.12.06.18.192.18h2.58c.132,0,.192-.048.192-.144a.183.183,0,0,0-.18-.2,1.74,1.74,0,0,1-.684-.156c-.2-.108-.312-.372-.312-.78V-7.98h.048L59.034-.264a.231.231,0,0,0,.216.144h.1a.21.21,0,0,0,.216-.144l2.976-7.728h.036v6.576c0,.444-.108.72-.348.816a2.6,2.6,0,0,1-.684.132c-.108.012-.18.072-.18.168a.168.168,0,0,0,.192.18h2.88C64.554-.12,64.614-.18,64.614-.288Z" transform="translate(295 32)" fill="#fff"/></g><g transform="translate(978.912 1340.229)"><path d="M6.419-9.481v3.206H6.166a3.994,3.994,0,0,0-.441-1.47,2.294,2.294,0,0,0-.906-.868A2.506,2.506,0,0,0,3.6-8.935,1.655,1.655,0,0,0,2.427-8.5a1.321,1.321,0,0,0-.465.988,1.17,1.17,0,0,0,.294.772A7.558,7.558,0,0,0,4.272-5.373,13.935,13.935,0,0,1,6.046-4.3a2.609,2.609,0,0,1,.731.878,2.314,2.314,0,0,1,.256,1.06A2.4,2.4,0,0,1,6.217-.55a2.958,2.958,0,0,1-2.1.762A4.45,4.45,0,0,1,3.356.15,7.746,7.746,0,0,1,2.478-.1a3.939,3.939,0,0,0-.844-.215.358.358,0,0,0-.27.1.817.817,0,0,0-.147.424H.964V-2.967h.253A4.493,4.493,0,0,0,1.7-1.473a2.3,2.3,0,0,0,.919.824,2.851,2.851,0,0,0,1.357.328,1.93,1.93,0,0,0,1.35-.451,1.4,1.4,0,0,0,.5-1.066,1.446,1.446,0,0,0-.188-.69,2.058,2.058,0,0,0-.584-.649A16.761,16.761,0,0,0,3.589-4.05,14.125,14.125,0,0,1,1.9-5.113a2.867,2.867,0,0,1-.762-.875,2.171,2.171,0,0,1-.26-1.053A2.282,2.282,0,0,1,1.641-8.76a2.728,2.728,0,0,1,1.948-.721,3.909,3.909,0,0,1,1.565.362,1.61,1.61,0,0,0,.54.171.407.407,0,0,0,.291-.106.846.846,0,0,0,.181-.427ZM14.191-3.1H10.6L9.974-1.641a2.316,2.316,0,0,0-.232.807.469.469,0,0,0,.2.373,1.762,1.762,0,0,0,.872.208V0H7.9V-.253A1.573,1.573,0,0,0,8.647-.52,4.187,4.187,0,0,0,9.42-1.853l3.261-7.629h.239l3.227,7.711a3.515,3.515,0,0,0,.708,1.207,1.442,1.442,0,0,0,.885.311V0H14.082V-.253a1.371,1.371,0,0,0,.749-.185.476.476,0,0,0,.195-.383,2.834,2.834,0,0,0-.273-.95ZM14-3.609,12.428-7.355,10.814-3.609Zm8.08-1.531,3.418,3.4A6.241,6.241,0,0,0,26.934-.6a3.064,3.064,0,0,0,1.189.345V0H23.714V-.253a.952.952,0,0,0,.571-.133.376.376,0,0,0,.174-.3.648.648,0,0,0-.065-.294,2.6,2.6,0,0,0-.427-.485l-3.2-3.165v2.987a3.069,3.069,0,0,0,.089.93.612.612,0,0,0,.287.294,1.257,1.257,0,0,0,.622.164h.314V0H18.129V-.253h.328a.99.99,0,0,0,.834-.335,2.082,2.082,0,0,0,.164-1.053V-7.629a3.145,3.145,0,0,0-.089-.937.625.625,0,0,0-.28-.287,1.3,1.3,0,0,0-.629-.164h-.328V-9.27H22.08v.253h-.314a1.327,1.327,0,0,0-.622.157.593.593,0,0,0-.294.328,3.124,3.124,0,0,0-.082.9v2.837q.137-.13.937-.868a20.563,20.563,0,0,0,2.454-2.481.9.9,0,0,0,.185-.479A.353.353,0,0,0,24.2-8.9a.765.765,0,0,0-.485-.12H23.5V-9.27h3.4v.253a2.026,2.026,0,0,0-.547.082,2.808,2.808,0,0,0-.6.291,5.891,5.891,0,0,0-.875.694q-.15.137-1.388,1.4ZM34.412-3.1H30.823l-.629,1.463a2.316,2.316,0,0,0-.232.807.469.469,0,0,0,.2.373,1.762,1.762,0,0,0,.872.208V0H28.116V-.253a1.573,1.573,0,0,0,.752-.267,4.188,4.188,0,0,0,.772-1.333L32.9-9.481h.239l3.227,7.711a3.515,3.515,0,0,0,.708,1.207,1.442,1.442,0,0,0,.885.311V0H34.3V-.253a1.371,1.371,0,0,0,.749-.185.476.476,0,0,0,.195-.383,2.834,2.834,0,0,0-.273-.95Zm-.191-.506L32.648-7.355,31.035-3.609ZM43.846,0,40.264-7.8v6.193A1.9,1.9,0,0,0,40.448-.54a1.013,1.013,0,0,0,.8.287h.328V0H38.35V-.253h.328a.942.942,0,0,0,.834-.355,2.074,2.074,0,0,0,.15-1V-7.663a2.118,2.118,0,0,0-.137-.889.759.759,0,0,0-.352-.332,1.888,1.888,0,0,0-.824-.133V-9.27h2.625l3.363,7.253L47.646-9.27h2.625v.253H49.95a.95.95,0,0,0-.841.355,2.074,2.074,0,0,0-.15,1v6.057A1.839,1.839,0,0,0,49.15-.54a1.013,1.013,0,0,0,.8.287h.321V0H46.334V-.253h.328A.931.931,0,0,0,47.5-.608a2.074,2.074,0,0,0,.15-1V-7.8L44.071,0Zm11.84-9.481a4.2,4.2,0,0,1,3.127,1.371,4.732,4.732,0,0,1,1.323,3.421A4.873,4.873,0,0,1,58.8-1.183,4.3,4.3,0,0,1,55.576.212a4.275,4.275,0,0,1-3.216-1.36,4.881,4.881,0,0,1-1.3-3.521,4.69,4.69,0,0,1,1.5-3.6A4.437,4.437,0,0,1,55.686-9.481Zm-.13.5a2.446,2.446,0,0,0-2,.923A5.218,5.218,0,0,0,52.623-4.7,5.505,5.505,0,0,0,53.594-1.2a2.4,2.4,0,0,0,1.969.93,2.69,2.69,0,0,0,2.157-1.019A4.967,4.967,0,0,0,58.57-4.5a5.611,5.611,0,0,0-.937-3.548A2.526,2.526,0,0,0,55.556-8.982ZM68.776-9.27l.1,2.174h-.26a2.625,2.625,0,0,0-.205-.82A1.372,1.372,0,0,0,67.85-8.5a1.967,1.967,0,0,0-.926-.188H65.618v7.082A1.9,1.9,0,0,0,65.8-.54a1.026,1.026,0,0,0,.8.287h.321V0H62.993V-.253h.328a.942.942,0,0,0,.834-.355,2.074,2.074,0,0,0,.15-1V-8.688H63.191a3.107,3.107,0,0,0-.923.1,1.267,1.267,0,0,0-.608.5,2.02,2.02,0,0,0-.3,1H61.1l.109-2.174Zm5.318-.212a4.2,4.2,0,0,1,3.127,1.371,4.732,4.732,0,0,1,1.323,3.421,4.873,4.873,0,0,1-1.333,3.507A4.3,4.3,0,0,1,73.985.212a4.275,4.275,0,0,1-3.216-1.36,4.881,4.881,0,0,1-1.3-3.521,4.69,4.69,0,0,1,1.5-3.6A4.437,4.437,0,0,1,74.095-9.481Zm-.13.5a2.446,2.446,0,0,0-2,.923A5.218,5.218,0,0,0,71.032-4.7,5.506,5.506,0,0,0,72-1.2a2.4,2.4,0,0,0,1.969.93,2.69,2.69,0,0,0,2.157-1.019A4.967,4.967,0,0,0,76.979-4.5a5.611,5.611,0,0,0-.937-3.548A2.526,2.526,0,0,0,73.965-8.982ZM88.708-5.115h2.461V-4.9a1.444,1.444,0,0,0-.753.226,4.326,4.326,0,0,0-.759,1.116,12.483,12.483,0,0,1-1.16,1.74,4.045,4.045,0,0,0,.932.853,1.606,1.606,0,0,0,.826.243,1.08,1.08,0,0,0,.686-.22,1.189,1.189,0,0,0,.4-.647l.217.158a2.259,2.259,0,0,1-.7,1.219,1.716,1.716,0,0,1-1.119.393,2.083,2.083,0,0,1-.976-.261,4.365,4.365,0,0,1-1.081-.882,5.085,5.085,0,0,1-1.31.894,3.136,3.136,0,0,1-1.245.249,2.2,2.2,0,0,1-1.535-.516,1.606,1.606,0,0,1-.568-1.23,2.407,2.407,0,0,1,.51-1.415A5.689,5.689,0,0,1,85.45-4.441a6.427,6.427,0,0,1-.375-1,3.015,3.015,0,0,1-.1-.747,1.763,1.763,0,0,1,.738-1.529,2.192,2.192,0,0,1,1.307-.41,1.593,1.593,0,0,1,1.137.413A1.34,1.34,0,0,1,88.6-6.7a1.573,1.573,0,0,1-.425,1.09,5.491,5.491,0,0,1-1.5,1.025,23.8,23.8,0,0,0,1.553,2.426A3.563,3.563,0,0,0,89.253-4.23a.73.73,0,0,0-.176-.48.538.538,0,0,0-.369-.187Zm-2.238.152a3.107,3.107,0,0,0,1.087-.785,1.506,1.506,0,0,0,.36-.979.974.974,0,0,0-.261-.7.855.855,0,0,0-.647-.275.9.9,0,0,0-.771.354,1.175,1.175,0,0,0-.261.694,2.394,2.394,0,0,0,.1.642A9.678,9.678,0,0,0,86.47-4.963ZM87.378-1.3Q86.6-2.355,86.306-2.842t-.656-1.207a3.343,3.343,0,0,0-1.058.891A1.754,1.754,0,0,0,84.237-2.1a1.648,1.648,0,0,0,.4,1.1,1.358,1.358,0,0,0,1.09.475,1.794,1.794,0,0,0,.712-.146A4.447,4.447,0,0,0,87.378-1.3ZM98.29-4.341v2.7a1.893,1.893,0,0,0,.191,1.087.983.983,0,0,0,.786.3h.355V0H95.651V-.253H96a.932.932,0,0,0,.841-.383,2.255,2.255,0,0,0,.137-1V-7.629a1.952,1.952,0,0,0-.185-1.087,1,1,0,0,0-.793-.3h-.349V-9.27h3.4a6.021,6.021,0,0,1,1.962.256,2.7,2.7,0,0,1,1.21.865,2.223,2.223,0,0,1,.492,1.442,2.43,2.43,0,0,1-.749,1.846,2.952,2.952,0,0,1-2.116.711,5.969,5.969,0,0,1-.725-.048Q98.734-4.245,98.29-4.341Zm0-.39q.362.068.643.1a4.046,4.046,0,0,0,.479.034,1.626,1.626,0,0,0,1.227-.55,2,2,0,0,0,.516-1.425,2.563,2.563,0,0,0-.246-1.118,1.7,1.7,0,0,0-.7-.772,2.039,2.039,0,0,0-1.025-.256,4.046,4.046,0,0,0-.9.13ZM108.325-3.1h-3.589l-.629,1.463a2.316,2.316,0,0,0-.232.807.469.469,0,0,0,.2.373,1.762,1.762,0,0,0,.872.208V0h-2.919V-.253a1.573,1.573,0,0,0,.752-.267,4.188,4.188,0,0,0,.772-1.333l3.261-7.629h.239l3.227,7.711a3.515,3.515,0,0,0,.708,1.207,1.442,1.442,0,0,0,.885.311V0h-3.657V-.253a1.371,1.371,0,0,0,.749-.185.476.476,0,0,0,.195-.383,2.834,2.834,0,0,0-.273-.95Zm-.191-.506-1.572-3.746-1.613,3.746ZM121.491,0h-2.475l-3.138-4.334q-.349.014-.567.014-.089,0-.191,0t-.212-.01v2.693A1.893,1.893,0,0,0,115.1-.554a.974.974,0,0,0,.779.3h.362V0H112.27V-.253h.349a.932.932,0,0,0,.841-.383,2.158,2.158,0,0,0,.144-1V-7.629a1.893,1.893,0,0,0-.191-1.087,1,1,0,0,0-.793-.3h-.349V-9.27h3.377a8.031,8.031,0,0,1,2.177.215,2.491,2.491,0,0,1,1.189.793,2.063,2.063,0,0,1,.489,1.377,2.164,2.164,0,0,1-.557,1.483,3.147,3.147,0,0,1-1.726.889l1.914,2.659a4.756,4.756,0,0,0,1.128,1.217,2.841,2.841,0,0,0,1.23.383Zm-6.583-4.765q.13,0,.226,0l.157,0a3.012,3.012,0,0,0,2-.574,1.838,1.838,0,0,0,.673-1.463,1.91,1.91,0,0,0-.543-1.412,1.945,1.945,0,0,0-1.439-.543,6.033,6.033,0,0,0-1.073.13Zm13.72-4.5.1,2.174h-.26a2.625,2.625,0,0,0-.205-.82A1.372,1.372,0,0,0,127.7-8.5a1.967,1.967,0,0,0-.926-.188H125.47v7.082a1.9,1.9,0,0,0,.185,1.066,1.026,1.026,0,0,0,.8.287h.321V0h-3.931V-.253h.328a.942.942,0,0,0,.834-.355,2.074,2.074,0,0,0,.15-1V-8.688h-1.114a3.107,3.107,0,0,0-.923.1,1.267,1.267,0,0,0-.608.5,2.02,2.02,0,0,0-.3,1h-.26l.109-2.174Zm.267,0h2.516l5.667,6.952V-7.663a1.839,1.839,0,0,0-.191-1.066,1.013,1.013,0,0,0-.8-.287h-.321V-9.27h3.227v.253h-.328a.942.942,0,0,0-.834.355,2.074,2.074,0,0,0-.15,1V.15h-.246l-6.111-7.465v5.708a1.9,1.9,0,0,0,.185,1.066,1.026,1.026,0,0,0,.8.287h.328V0h-3.227V-.253h.321a.95.95,0,0,0,.841-.355,2.074,2.074,0,0,0,.15-1V-8.053a4.225,4.225,0,0,0-.612-.622,2.247,2.247,0,0,0-.612-.28,2.179,2.179,0,0,0-.6-.062Zm13.221.506V-5.1h2.037a1.661,1.661,0,0,0,1.06-.239,1.54,1.54,0,0,0,.4-1.107h.253V-3.22h-.253a3.528,3.528,0,0,0-.191-.868.856.856,0,0,0-.4-.376,2.059,2.059,0,0,0-.861-.137h-2.037v3.056a2.839,2.839,0,0,0,.055.749.43.43,0,0,0,.191.212,1.162,1.162,0,0,0,.52.079h1.572a4.26,4.26,0,0,0,1.142-.109,1.7,1.7,0,0,0,.684-.431,5.26,5.26,0,0,0,.868-1.278h.273L146.62,0h-7.144V-.253h.328a1.3,1.3,0,0,0,.622-.157.575.575,0,0,0,.3-.328,3.217,3.217,0,0,0,.079-.9V-7.656a1.993,1.993,0,0,0-.178-1.087,1.059,1.059,0,0,0-.82-.273h-.328V-9.27h7.144l.1,2.03h-.267a3.2,3.2,0,0,0-.318-1,1.092,1.092,0,0,0-.516-.417,3.1,3.1,0,0,0-.964-.1ZM157.2,0h-2.475L151.59-4.334q-.349.014-.567.014-.089,0-.191,0t-.212-.01v2.693a1.893,1.893,0,0,0,.191,1.087.974.974,0,0,0,.779.3h.362V0H147.98V-.253h.349a.932.932,0,0,0,.841-.383,2.158,2.158,0,0,0,.144-1V-7.629a1.893,1.893,0,0,0-.191-1.087,1,1,0,0,0-.793-.3h-.349V-9.27h3.377a8.031,8.031,0,0,1,2.177.215,2.491,2.491,0,0,1,1.189.793,2.063,2.063,0,0,1,.489,1.377,2.164,2.164,0,0,1-.557,1.483,3.147,3.147,0,0,1-1.726.889l1.914,2.659a4.756,4.756,0,0,0,1.128,1.217,2.841,2.841,0,0,0,1.23.383Zm-6.583-4.765q.13,0,.226,0l.157,0a3.012,3.012,0,0,0,2-.574,1.838,1.838,0,0,0,.673-1.463,1.91,1.91,0,0,0-.543-1.412,1.945,1.945,0,0,0-1.439-.543,6.033,6.033,0,0,0-1.073.13ZM163.5-9.481v3.206h-.253a3.994,3.994,0,0,0-.441-1.47,2.294,2.294,0,0,0-.906-.868,2.506,2.506,0,0,0-1.217-.321,1.655,1.655,0,0,0-1.176.434,1.321,1.321,0,0,0-.465.988,1.17,1.17,0,0,0,.294.772,7.558,7.558,0,0,0,2.017,1.367,13.935,13.935,0,0,1,1.774,1.07,2.609,2.609,0,0,1,.731.878,2.314,2.314,0,0,1,.256,1.06A2.4,2.4,0,0,1,163.3-.55a2.958,2.958,0,0,1-2.1.762,4.45,4.45,0,0,1-.759-.062,7.746,7.746,0,0,1-.878-.25,3.939,3.939,0,0,0-.844-.215.358.358,0,0,0-.27.1.817.817,0,0,0-.147.424h-.253V-2.967h.253a4.493,4.493,0,0,0,.479,1.494,2.3,2.3,0,0,0,.919.824,2.851,2.851,0,0,0,1.357.328,1.93,1.93,0,0,0,1.35-.451,1.4,1.4,0,0,0,.5-1.066,1.446,1.446,0,0,0-.188-.69,2.057,2.057,0,0,0-.584-.649,16.761,16.761,0,0,0-1.456-.872,14.125,14.125,0,0,1-1.692-1.063,2.867,2.867,0,0,1-.762-.875,2.171,2.171,0,0,1-.26-1.053,2.282,2.282,0,0,1,.766-1.719,2.728,2.728,0,0,1,1.948-.721,3.909,3.909,0,0,1,1.565.362,1.61,1.61,0,0,0,.54.171.407.407,0,0,0,.291-.106.846.846,0,0,0,.181-.427ZM3.209,4.259v1.6H3.083a2,2,0,0,0-.22-.735,1.147,1.147,0,0,0-.453-.434A1.253,1.253,0,0,0,1.8,4.533a.828.828,0,0,0-.588.217.66.66,0,0,0-.232.494.585.585,0,0,0,.147.386,3.779,3.779,0,0,0,1.008.684,6.968,6.968,0,0,1,.887.535,1.3,1.3,0,0,1,.366.439,1.157,1.157,0,0,1,.128.53,1.2,1.2,0,0,1-.408.907,1.479,1.479,0,0,1-1.051.381,2.225,2.225,0,0,1-.379-.031,3.873,3.873,0,0,1-.439-.125,1.969,1.969,0,0,0-.422-.108.179.179,0,0,0-.135.051.408.408,0,0,0-.073.212H.482V7.517H.608a2.246,2.246,0,0,0,.239.747,1.149,1.149,0,0,0,.46.412,1.425,1.425,0,0,0,.678.164.965.965,0,0,0,.675-.226.7.7,0,0,0,.248-.533.723.723,0,0,0-.094-.345,1.029,1.029,0,0,0-.292-.325,8.38,8.38,0,0,0-.728-.436,7.062,7.062,0,0,1-.846-.531,1.434,1.434,0,0,1-.381-.437,1.085,1.085,0,0,1-.13-.526A1.141,1.141,0,0,1,.82,4.62a1.364,1.364,0,0,1,.974-.361,1.954,1.954,0,0,1,.783.181.805.805,0,0,0,.27.085.2.2,0,0,0,.145-.053.423.423,0,0,0,.091-.214Zm4.2,3.189H5.616L5.3,8.18a1.158,1.158,0,0,0-.116.4.234.234,0,0,0,.1.186.881.881,0,0,0,.436.1V9H4.263V8.874a.786.786,0,0,0,.376-.133,2.094,2.094,0,0,0,.386-.667l1.63-3.814h.12L8.388,8.115a1.757,1.757,0,0,0,.354.6.721.721,0,0,0,.443.156V9H7.356V8.874a.686.686,0,0,0,.374-.092.238.238,0,0,0,.1-.191,1.417,1.417,0,0,0-.137-.475Zm-.1-.253L6.529,5.322,5.722,7.2ZM11.67,6.43l1.709,1.7A3.12,3.12,0,0,0,14.1,8.7a1.532,1.532,0,0,0,.595.173V9h-2.2V8.874a.476.476,0,0,0,.285-.067.188.188,0,0,0,.087-.149.324.324,0,0,0-.032-.147,1.3,1.3,0,0,0-.214-.243l-1.6-1.583V8.18a1.535,1.535,0,0,0,.044.465.306.306,0,0,0,.144.147.629.629,0,0,0,.311.082h.157V9H9.694V8.874h.164a.5.5,0,0,0,.417-.167,1.041,1.041,0,0,0,.082-.526V5.186a1.573,1.573,0,0,0-.044-.468.312.312,0,0,0-.14-.144.648.648,0,0,0-.314-.082H9.694V4.365H11.67v.126h-.157a.663.663,0,0,0-.311.079.3.3,0,0,0-.147.164,1.562,1.562,0,0,0-.041.451V6.6q.068-.065.468-.434a10.281,10.281,0,0,0,1.227-1.241A.448.448,0,0,0,12.8,4.69a.177.177,0,0,0-.072-.138.382.382,0,0,0-.243-.06h-.106V4.365h1.7v.126a1.013,1.013,0,0,0-.273.041,1.4,1.4,0,0,0-.3.145,2.945,2.945,0,0,0-.437.347q-.075.068-.694.7Zm6.481,1.019H16.357l-.314.731a1.158,1.158,0,0,0-.116.4.234.234,0,0,0,.1.186.881.881,0,0,0,.436.1V9H15V8.874a.786.786,0,0,0,.376-.133,2.094,2.094,0,0,0,.386-.667L17.4,4.259h.12l1.613,3.855a1.757,1.757,0,0,0,.354.6.721.721,0,0,0,.443.156V9H18.1V8.874a.686.686,0,0,0,.374-.092.238.238,0,0,0,.1-.191,1.417,1.417,0,0,0-.137-.475Zm-.1-.253-.786-1.873L16.463,7.2ZM23.183,9,21.392,5.1V8.2a.948.948,0,0,0,.092.533.507.507,0,0,0,.4.144h.164V9H20.435V8.874H20.6a.471.471,0,0,0,.417-.178,1.037,1.037,0,0,0,.075-.5V5.168a1.059,1.059,0,0,0-.068-.444.379.379,0,0,0-.176-.166.944.944,0,0,0-.412-.067V4.365h1.313l1.682,3.626,1.654-3.626H26.4v.126h-.161a.475.475,0,0,0-.42.178,1.037,1.037,0,0,0-.075.5V8.2a.92.92,0,0,0,.1.533.507.507,0,0,0,.4.144H26.4V9H24.427V8.874h.164a.466.466,0,0,0,.417-.178,1.037,1.037,0,0,0,.075-.5V5.1L23.3,9Zm6.235-4.741a2.1,2.1,0,0,1,1.564.685,2.366,2.366,0,0,1,.661,1.711,2.436,2.436,0,0,1-.667,1.753,2.228,2.228,0,0,1-3.221.017,2.44,2.44,0,0,1-.651-1.76,2.345,2.345,0,0,1,.752-1.8A2.218,2.218,0,0,1,29.418,4.259Zm-.065.25a1.223,1.223,0,0,0-1,.461,2.609,2.609,0,0,0-.468,1.682A2.753,2.753,0,0,0,28.372,8.4a1.2,1.2,0,0,0,.984.465,1.345,1.345,0,0,0,1.078-.509,2.484,2.484,0,0,0,.426-1.606,2.806,2.806,0,0,0-.468-1.774A1.263,1.263,0,0,0,29.353,4.509Zm6.925-.144.051,1.087H36.2a1.313,1.313,0,0,0-.1-.41.686.686,0,0,0-.282-.292.983.983,0,0,0-.463-.094H34.7V8.2a.948.948,0,0,0,.092.533.513.513,0,0,0,.4.144h.161V9H33.387V8.874h.164a.471.471,0,0,0,.417-.178,1.037,1.037,0,0,0,.075-.5V4.656h-.557a1.553,1.553,0,0,0-.461.048.634.634,0,0,0-.3.25,1.01,1.01,0,0,0-.15.5h-.13l.055-1.087Zm2.974-.106a2.1,2.1,0,0,1,1.564.685,2.366,2.366,0,0,1,.661,1.711,2.436,2.436,0,0,1-.667,1.753,2.228,2.228,0,0,1-3.221.017,2.44,2.44,0,0,1-.651-1.76,2.345,2.345,0,0,1,.752-1.8A2.218,2.218,0,0,1,39.252,4.259Zm-.065.25a1.223,1.223,0,0,0-1,.461,2.609,2.609,0,0,0-.468,1.682A2.753,2.753,0,0,0,38.206,8.4a1.2,1.2,0,0,0,.984.465,1.345,1.345,0,0,0,1.078-.509,2.484,2.484,0,0,0,.426-1.606,2.806,2.806,0,0,0-.468-1.774A1.263,1.263,0,0,0,39.187,4.509Zm7.1,4.365V9H44.3V8.874h.164a.5.5,0,0,0,.417-.167,1.041,1.041,0,0,0,.082-.526V5.186a1.535,1.535,0,0,0-.044-.465.308.308,0,0,0-.14-.147.648.648,0,0,0-.314-.082H44.3V4.365h1.986v.126H46.12a.491.491,0,0,0-.414.167,1,1,0,0,0-.085.526V8.18a1.535,1.535,0,0,0,.044.465.306.306,0,0,0,.144.147.629.629,0,0,0,.311.082Zm.394-4.508h1.258l2.833,3.476V5.168a.92.92,0,0,0-.1-.533.507.507,0,0,0-.4-.144h-.161V4.365H51.73v.126h-.164a.471.471,0,0,0-.417.178,1.037,1.037,0,0,0-.075.5V9.075H50.95L47.895,5.343V8.2a.948.948,0,0,0,.092.533.513.513,0,0,0,.4.144h.164V9H46.938V8.874H47.1a.475.475,0,0,0,.42-.178,1.037,1.037,0,0,0,.075-.5V4.974a2.112,2.112,0,0,0-.306-.311,1.123,1.123,0,0,0-.306-.14,1.09,1.09,0,0,0-.3-.031Zm9.513,0,.051,1.087h-.13a1.313,1.313,0,0,0-.1-.41.686.686,0,0,0-.282-.292.983.983,0,0,0-.463-.094h-.653V8.2a.948.948,0,0,0,.092.533.513.513,0,0,0,.4.144h.161V9H53.3V8.874h.164a.471.471,0,0,0,.417-.178,1.037,1.037,0,0,0,.075-.5V4.656H53.4a1.553,1.553,0,0,0-.461.048.634.634,0,0,0-.3.25,1.01,1.01,0,0,0-.15.5h-.13l.055-1.087Zm2,.253V6.45h1.019a.83.83,0,0,0,.53-.12.77.77,0,0,0,.2-.554h.126V7.39h-.126a1.764,1.764,0,0,0-.1-.434.428.428,0,0,0-.2-.188,1.03,1.03,0,0,0-.431-.068H58.2V8.228a1.419,1.419,0,0,0,.027.374.215.215,0,0,0,.1.106.581.581,0,0,0,.26.039h.786a2.13,2.13,0,0,0,.571-.055.851.851,0,0,0,.342-.215,2.63,2.63,0,0,0,.434-.639h.137L60.45,9H56.878V8.874h.164a.65.65,0,0,0,.311-.079.288.288,0,0,0,.149-.164,1.609,1.609,0,0,0,.039-.448V5.172a1,1,0,0,0-.089-.543.529.529,0,0,0-.41-.137h-.164V4.365H60.45L60.5,5.38h-.133a1.6,1.6,0,0,0-.159-.5.546.546,0,0,0-.258-.208,1.548,1.548,0,0,0-.482-.051ZM66.056,9H64.819L63.25,6.833q-.174.007-.284.007l-.1,0-.106-.005V8.18a.946.946,0,0,0,.1.543.487.487,0,0,0,.39.15h.181V9H61.445V8.874h.174a.466.466,0,0,0,.42-.191,1.079,1.079,0,0,0,.072-.5V5.186a.946.946,0,0,0-.1-.543.5.5,0,0,0-.4-.15h-.174V4.365h1.688a4.015,4.015,0,0,1,1.089.108,1.245,1.245,0,0,1,.595.4,1.032,1.032,0,0,1,.244.689,1.082,1.082,0,0,1-.279.742,1.573,1.573,0,0,1-.863.444l.957,1.33a2.378,2.378,0,0,0,.564.608,1.421,1.421,0,0,0,.615.191ZM62.764,6.618l.113,0,.079,0a1.506,1.506,0,0,0,1-.287.919.919,0,0,0,.337-.731.955.955,0,0,0-.272-.706.973.973,0,0,0-.719-.272,3.016,3.016,0,0,0-.537.065Zm3.453-2.252h1.258l2.833,3.476V5.168a.92.92,0,0,0-.1-.533.507.507,0,0,0-.4-.144h-.161V4.365h1.613v.126H71.1a.471.471,0,0,0-.417.178,1.037,1.037,0,0,0-.075.5V9.075h-.123L67.43,5.343V8.2a.948.948,0,0,0,.092.533.513.513,0,0,0,.4.144h.164V9H66.473V8.874h.161a.475.475,0,0,0,.42-.178,1.037,1.037,0,0,0,.075-.5V4.974a2.112,2.112,0,0,0-.306-.311,1.123,1.123,0,0,0-.306-.14,1.09,1.09,0,0,0-.3-.031Zm8.665,3.083H73.088l-.314.731a1.158,1.158,0,0,0-.116.4.234.234,0,0,0,.1.186.881.881,0,0,0,.436.1V9H71.734V8.874a.786.786,0,0,0,.376-.133,2.094,2.094,0,0,0,.386-.667l1.63-3.814h.12L75.86,8.115a1.757,1.757,0,0,0,.354.6.721.721,0,0,0,.443.156V9H74.828V8.874a.686.686,0,0,0,.374-.092.238.238,0,0,0,.1-.191,1.417,1.417,0,0,0-.137-.475Zm-.1-.253L74,5.322,73.194,7.2Zm5.538-2.83.051,1.087h-.13a1.312,1.312,0,0,0-.1-.41.686.686,0,0,0-.282-.292.983.983,0,0,0-.463-.094h-.653V8.2a.948.948,0,0,0,.092.533.513.513,0,0,0,.4.144H79.4V9H77.433V8.874H77.6a.471.471,0,0,0,.417-.178,1.037,1.037,0,0,0,.075-.5V4.656h-.557a1.554,1.554,0,0,0-.461.048.634.634,0,0,0-.3.25,1.01,1.01,0,0,0-.15.5h-.13l.055-1.087Zm2.7,4.508V9H81.039V8.874H81.2a.5.5,0,0,0,.417-.167A1.041,1.041,0,0,0,81.7,8.18V5.186a1.535,1.535,0,0,0-.044-.465.308.308,0,0,0-.14-.147.648.648,0,0,0-.314-.082h-.164V4.365h1.986v.126h-.167a.491.491,0,0,0-.414.167,1,1,0,0,0-.085.526V8.18a1.535,1.535,0,0,0,.044.465.306.306,0,0,0,.144.147.629.629,0,0,0,.311.082Zm3.046-4.614a2.1,2.1,0,0,1,1.564.685A2.366,2.366,0,0,1,88.3,6.655a2.436,2.436,0,0,1-.667,1.753,2.228,2.228,0,0,1-3.221.017,2.44,2.44,0,0,1-.651-1.76,2.345,2.345,0,0,1,.752-1.8A2.218,2.218,0,0,1,86.071,4.259Zm-.065.25a1.223,1.223,0,0,0-1,.461,2.609,2.609,0,0,0-.468,1.682A2.753,2.753,0,0,0,85.025,8.4a1.2,1.2,0,0,0,.984.465,1.345,1.345,0,0,0,1.078-.509,2.484,2.484,0,0,0,.426-1.606,2.806,2.806,0,0,0-.468-1.774A1.263,1.263,0,0,0,86.006,4.509Zm2.783-.144h1.258L92.88,7.841V5.168a.92.92,0,0,0-.1-.533.507.507,0,0,0-.4-.144h-.161V4.365h1.613v.126h-.164a.471.471,0,0,0-.417.178,1.037,1.037,0,0,0-.075.5V9.075h-.123L90,5.343V8.2a.948.948,0,0,0,.092.533.513.513,0,0,0,.4.144h.164V9H89.045V8.874h.161a.475.475,0,0,0,.42-.178,1.037,1.037,0,0,0,.075-.5V4.974a2.112,2.112,0,0,0-.306-.311,1.123,1.123,0,0,0-.306-.14,1.09,1.09,0,0,0-.3-.031Zm8.665,3.083H95.659l-.314.731a1.158,1.158,0,0,0-.116.4.234.234,0,0,0,.1.186.881.881,0,0,0,.436.1V9H94.306V8.874a.786.786,0,0,0,.376-.133,2.094,2.094,0,0,0,.386-.667L96.7,4.259h.12l1.613,3.855a1.757,1.757,0,0,0,.354.6.721.721,0,0,0,.443.156V9H97.4V8.874a.686.686,0,0,0,.374-.092.238.238,0,0,0,.1-.191,1.417,1.417,0,0,0-.137-.475Zm-.1-.253-.786-1.873L95.765,7.2Zm6.276.523.113.024L103.35,9H99.761V8.874h.174a.466.466,0,0,0,.42-.191,1.1,1.1,0,0,0,.072-.506V5.186a.957.957,0,0,0-.1-.543.5.5,0,0,0-.4-.15h-.174V4.365h2.1v.126a1.281,1.281,0,0,0-.518.068.418.418,0,0,0-.2.181,1.491,1.491,0,0,0-.055.523V8.176a.947.947,0,0,0,.055.39.244.244,0,0,0,.126.106,2.219,2.219,0,0,0,.533.034h.338a2.452,2.452,0,0,0,.749-.079.975.975,0,0,0,.393-.279A2.283,2.283,0,0,0,103.634,7.718Zm3.819-.889V8.18a.946.946,0,0,0,.1.543.491.491,0,0,0,.393.15h.178V9h-1.986V8.874h.174a.466.466,0,0,0,.42-.191,1.127,1.127,0,0,0,.068-.5V5.186a.976.976,0,0,0-.092-.543.5.5,0,0,0-.4-.15h-.174V4.365h1.7a3.01,3.01,0,0,1,.981.128,1.35,1.35,0,0,1,.6.432,1.111,1.111,0,0,1,.246.721,1.215,1.215,0,0,1-.374.923,1.476,1.476,0,0,1-1.058.355,2.985,2.985,0,0,1-.362-.024Q107.675,6.877,107.453,6.83Zm0-.195q.181.034.321.051a2.023,2.023,0,0,0,.239.017.813.813,0,0,0,.614-.275,1,1,0,0,0,.258-.713,1.282,1.282,0,0,0-.123-.559.85.85,0,0,0-.349-.386,1.019,1.019,0,0,0-.513-.128,2.023,2.023,0,0,0-.448.065Zm5.333.813h-1.794l-.314.731a1.158,1.158,0,0,0-.116.4.234.234,0,0,0,.1.186.881.881,0,0,0,.436.1V9h-1.459V8.874a.786.786,0,0,0,.376-.133,2.094,2.094,0,0,0,.386-.667l1.63-3.814h.12l1.613,3.855a1.757,1.757,0,0,0,.354.6.721.721,0,0,0,.443.156V9h-1.829V8.874a.686.686,0,0,0,.374-.092.238.238,0,0,0,.1-.191,1.417,1.417,0,0,0-.137-.475Zm-.1-.253L111.9,5.322,111.1,7.2Zm5.538-2.83.051,1.087h-.13a1.312,1.312,0,0,0-.1-.41.686.686,0,0,0-.282-.292.983.983,0,0,0-.463-.094h-.653V8.2a.948.948,0,0,0,.092.533.513.513,0,0,0,.4.144h.161V9h-1.965V8.874h.164a.471.471,0,0,0,.417-.178,1.037,1.037,0,0,0,.075-.5V4.656h-.557a1.554,1.554,0,0,0-.461.048.634.634,0,0,0-.3.25,1.01,1.01,0,0,0-.15.5h-.13l.055-1.087Zm2,.253V6.45h1.019a.83.83,0,0,0,.53-.12.77.77,0,0,0,.2-.554h.126V7.39h-.126a1.764,1.764,0,0,0-.1-.434.428.428,0,0,0-.2-.188,1.03,1.03,0,0,0-.431-.068h-1.019V8.228a1.419,1.419,0,0,0,.027.374.215.215,0,0,0,.1.106.581.581,0,0,0,.26.039h.786a2.13,2.13,0,0,0,.571-.055.851.851,0,0,0,.342-.215,2.63,2.63,0,0,0,.434-.639h.137L122.483,9h-3.572V8.874h.164a.65.65,0,0,0,.311-.079.288.288,0,0,0,.149-.164,1.608,1.608,0,0,0,.039-.448V5.172a1,1,0,0,0-.089-.543.529.529,0,0,0-.41-.137h-.164V4.365h3.572l.051,1.015H122.4a1.6,1.6,0,0,0-.159-.5.546.546,0,0,0-.258-.208,1.548,1.548,0,0,0-.482-.051Zm3.036-.253h1.258l2.833,3.476V5.168a.92.92,0,0,0-.1-.533.507.507,0,0,0-.4-.144H126.7V4.365h1.613v.126h-.164a.471.471,0,0,0-.417.178,1.037,1.037,0,0,0-.075.5V9.075h-.123L124.48,5.343V8.2a.948.948,0,0,0,.092.533.513.513,0,0,0,.4.144h.164V9h-1.613V8.874h.161a.475.475,0,0,0,.42-.178,1.037,1.037,0,0,0,.075-.5V4.974a2.112,2.112,0,0,0-.306-.311,1.123,1.123,0,0,0-.306-.14,1.09,1.09,0,0,0-.3-.031Zm9.513,0,.051,1.087h-.13a1.313,1.313,0,0,0-.1-.41.686.686,0,0,0-.282-.292.983.983,0,0,0-.463-.094H131.2V8.2a.948.948,0,0,0,.092.533.513.513,0,0,0,.4.144h.161V9h-1.965V8.874h.164a.471.471,0,0,0,.417-.178,1.037,1.037,0,0,0,.075-.5V4.656h-.557a1.553,1.553,0,0,0-.461.048.634.634,0,0,0-.3.25,1.01,1.01,0,0,0-.15.5h-.13L129,4.365Zm5.039-.106a2.1,2.1,0,0,1,1.564.685,2.366,2.366,0,0,1,.661,1.711,2.436,2.436,0,0,1-.667,1.753,2.228,2.228,0,0,1-3.221.017,2.44,2.44,0,0,1-.651-1.76,2.345,2.345,0,0,1,.752-1.8A2.218,2.218,0,0,1,137.819,4.259Zm-.065.25a1.223,1.223,0,0,0-1,.461,2.609,2.609,0,0,0-.468,1.682,2.753,2.753,0,0,0,.485,1.747,1.2,1.2,0,0,0,.984.465,1.345,1.345,0,0,0,1.078-.509,2.484,2.484,0,0,0,.426-1.606,2.806,2.806,0,0,0-.468-1.774A1.263,1.263,0,0,0,137.754,4.509Zm4.307.109V6.44h.844a.6.6,0,0,0,.426-.128.848.848,0,0,0,.179-.508h.126V7.373h-.126a.916.916,0,0,0-.07-.4.443.443,0,0,0-.185-.19.763.763,0,0,0-.35-.063h-.844V8.18a1.535,1.535,0,0,0,.044.465.306.306,0,0,0,.144.147.648.648,0,0,0,.314.082h.167V9h-1.989V8.874h.164a.5.5,0,0,0,.417-.167,1.041,1.041,0,0,0,.082-.526V5.186a1.535,1.535,0,0,0-.044-.465.308.308,0,0,0-.14-.147.635.635,0,0,0-.314-.082h-.164V4.365h3.449l.044,1.019h-.12a1.4,1.4,0,0,0-.207-.477.679.679,0,0,0-.291-.22,1.551,1.551,0,0,0-.535-.068Zm4.208,0V6.44h.844a.6.6,0,0,0,.426-.128.848.848,0,0,0,.179-.508h.126V7.373h-.126a.916.916,0,0,0-.07-.4.443.443,0,0,0-.185-.19.763.763,0,0,0-.35-.063h-.844V8.18a1.535,1.535,0,0,0,.044.465.306.306,0,0,0,.144.147.648.648,0,0,0,.314.082h.167V9H144.95V8.874h.164a.5.5,0,0,0,.417-.167,1.041,1.041,0,0,0,.082-.526V5.186a1.535,1.535,0,0,0-.044-.465.308.308,0,0,0-.14-.147.635.635,0,0,0-.314-.082h-.164V4.365H148.4l.044,1.019h-.12a1.4,1.4,0,0,0-.207-.477.679.679,0,0,0-.291-.22,1.551,1.551,0,0,0-.535-.068Zm4.936,4.255V9h-1.986V8.874h.164a.5.5,0,0,0,.417-.167,1.041,1.041,0,0,0,.082-.526V5.186a1.535,1.535,0,0,0-.044-.465.308.308,0,0,0-.14-.147.648.648,0,0,0-.314-.082h-.164V4.365h1.986v.126h-.167a.491.491,0,0,0-.414.167,1,1,0,0,0-.085.526V8.18a1.535,1.535,0,0,0,.044.465.306.306,0,0,0,.144.147.629.629,0,0,0,.311.082Zm4.7-4.614.106,1.576h-.106a1.983,1.983,0,0,0-.6-1.019,1.474,1.474,0,0,0-.943-.311,1.462,1.462,0,0,0-1.42.981,3.327,3.327,0,0,0-.214,1.275,2.707,2.707,0,0,0,.2,1.09,1.511,1.511,0,0,0,.607.708,1.745,1.745,0,0,0,.925.246,1.6,1.6,0,0,0,.8-.193,2.625,2.625,0,0,0,.759-.767l.106.068a2.433,2.433,0,0,1-.813.906,2.059,2.059,0,0,1-1.1.287,2.09,2.09,0,0,1-1.784-.854,2.443,2.443,0,0,1-.472-1.5,2.659,2.659,0,0,1,.311-1.275,2.25,2.25,0,0,1,.856-.9,2.313,2.313,0,0,1,1.191-.32,2.183,2.183,0,0,1,.991.246.538.538,0,0,0,.205.075.226.226,0,0,0,.161-.065.533.533,0,0,0,.126-.256Zm2.232.359V6.45h1.019a.83.83,0,0,0,.53-.12.77.77,0,0,0,.2-.554h.126V7.39h-.126a1.764,1.764,0,0,0-.1-.434.428.428,0,0,0-.2-.188,1.03,1.03,0,0,0-.431-.068h-1.019V8.228a1.419,1.419,0,0,0,.027.374.215.215,0,0,0,.1.106.581.581,0,0,0,.26.039h.786a2.13,2.13,0,0,0,.571-.055.851.851,0,0,0,.342-.215,2.63,2.63,0,0,0,.434-.639h.137L160.39,9h-3.572V8.874h.164a.65.65,0,0,0,.311-.079.288.288,0,0,0,.149-.164,1.609,1.609,0,0,0,.039-.448V5.172a1,1,0,0,0-.089-.543.529.529,0,0,0-.41-.137h-.164V4.365h3.572l.051,1.015h-.133a1.6,1.6,0,0,0-.159-.5.546.546,0,0,0-.258-.208,1.548,1.548,0,0,0-.482-.051Z" transform="translate(213.801 540.261)" fill="#fff"/></g></g></svg>