<svg id="フリーの王冠アイコン" xmlns="http://www.w3.org/2000/svg" width="52.493" height="40.6" viewBox="0 0 52.493 40.6">
  <path id="Path_661" data-name="Path 661" d="M52.493,67.927a3.989,3.989,0,1,0-7.976,0,4.118,4.118,0,0,0,1.121,2.837c-2.712,5.757-7.9,7.767-11.914,5.947-3.579-1.622-4.9-6.259-5.346-9.852A4.711,4.711,0,0,0,30.833,62.7a4.588,4.588,0,1,0-9.173,0,4.711,4.711,0,0,0,2.454,4.161c-.447,3.593-1.767,8.23-5.346,9.852-4.018,1.819-9.2-.191-11.914-5.947a4.118,4.118,0,0,0,1.121-2.837,4.038,4.038,0,0,0-3.987-4.085,4.092,4.092,0,0,0-.516,8.136l4.6,17.242H44.424l4.6-17.242A4.053,4.053,0,0,0,52.493,67.927Z" transform="translate(0 -58)" fill="#ead327"/>
  <path id="Path_662" data-name="Path 662" d="M98.684,396.678a2.9,2.9,0,0,1-3.032,2.744H60.031A2.9,2.9,0,0,1,57,396.678v-.228a2.9,2.9,0,0,1,3.031-2.746H95.652a2.9,2.9,0,0,1,3.032,2.746Z" transform="translate(-51.595 -358.822)" fill="#ead327"/>
</svg>
