<svg id="フリーの王冠アイコン" xmlns="http://www.w3.org/2000/svg" width="23.273" height="18" viewBox="0 0 23.273 18">
  <path id="Path_661" data-name="Path 661" d="M23.273,62.4a1.769,1.769,0,1,0-3.536,0,1.826,1.826,0,0,0,.5,1.258c-1.2,2.552-3.5,3.443-5.282,2.637-1.587-.719-2.172-2.775-2.37-4.368a2.089,2.089,0,0,0,1.088-1.845,2.034,2.034,0,1,0-4.067,0,2.089,2.089,0,0,0,1.088,1.845c-.2,1.593-.783,3.649-2.37,4.368-1.781.807-4.08-.084-5.282-2.637a1.826,1.826,0,0,0,.5-1.258A1.79,1.79,0,0,0,1.768,60.59,1.814,1.814,0,0,0,1.54,64.2l2.038,7.644H19.7L21.733,64.2A1.8,1.8,0,0,0,23.273,62.4Z" transform="translate(0 -58)" fill="#ead327"/>
  <path id="Path_662" data-name="Path 662" d="M75.48,395.022a1.285,1.285,0,0,1-1.344,1.217H58.344A1.285,1.285,0,0,1,57,395.022v-.1a1.285,1.285,0,0,1,1.344-1.217H74.136a1.285,1.285,0,0,1,1.344,1.217Z" transform="translate(-54.604 -378.239)" fill="#ead327"/>
</svg>
