<svg xmlns="http://www.w3.org/2000/svg" width="50" height="30" viewBox="0 0 50 30">
  <g id="Group_2598" data-name="Group 2598" transform="translate(-73 -510)">
    <g id="Group_2501" data-name="Group 2501" transform="translate(-2)">
      <rect id="Rectangle_2296" data-name="Rectangle 2296" width="50" height="30" rx="15" transform="translate(75 510)" fill="#03b2ff"/>
      <path id="Icon_awesome-twitter" data-name="Icon awesome-twitter" d="M17.675,7.368c.013.175.013.35.013.525A11.409,11.409,0,0,1,6.2,19.381,11.41,11.41,0,0,1,0,17.568a8.352,8.352,0,0,0,.975.05,8.086,8.086,0,0,0,5.013-1.725,4.045,4.045,0,0,1-3.775-2.8,5.091,5.091,0,0,0,.763.062,4.27,4.27,0,0,0,1.062-.137A4.038,4.038,0,0,1,.8,9.056v-.05a4.066,4.066,0,0,0,1.825.512,4.044,4.044,0,0,1-1.25-5.4A11.476,11.476,0,0,0,9.7,8.343a4.558,4.558,0,0,1-.1-.925,4.041,4.041,0,0,1,6.988-2.763,7.949,7.949,0,0,0,2.563-.975,4.027,4.027,0,0,1-1.775,2.225A8.094,8.094,0,0,0,19.7,5.281a8.679,8.679,0,0,1-2.025,2.087Z" transform="translate(89.81 513.619)" fill="#fff"/>
    </g>
  </g>
</svg>
