<svg xmlns="http://www.w3.org/2000/svg" width="40.6" height="40.6" viewBox="0 0 40.6 40.6">
  <g id="Group_2599" data-name="Group 2599" transform="translate(-679 -255.901)">
    <g id="マイクのアイコン素材_その4" data-name="マイクのアイコン素材 その4" transform="translate(679 255.901)">
      <rect id="Rectangle_59" data-name="Rectangle 59" width="1.777" height="4.795" transform="translate(1.257 40.6) rotate(-135)" fill="#387eb9"/>
      <path id="Path_663" data-name="Path 663" d="M.17,452.175l3.39-3.366,1.232,1.257-3.378,3.353Z" transform="translate(-0.157 -412.844)" fill="#387eb9"/>
      <path id="Path_664" data-name="Path 664" d="M59.624,147.594,43.473,167.021l4.112,4.112,19.427-16.151ZM47.585,171.133l19.427-16.151" transform="translate(-40.284 -133.722)" fill="#387eb9"/>
      <path id="Path_665" data-name="Path 665" d="M43.642,167.149l16.152-19.4,7.362,7.389L47.742,171.25Z" transform="translate(-40.441 -133.863)" fill="#387eb9"/>
      <path id="Path_666" data-name="Path 666" d="M273.2,44.326,281.878,53a8.712,8.712,0,0,0,6.031-2.338L275.542,38.295A8.712,8.712,0,0,0,273.2,44.326Z" transform="translate(-250.118 -35.486)" fill="#387eb9"/>
      <path id="Path_667" data-name="Path 667" d="M282.037,53.136l-8.662-8.669a8.7,8.7,0,0,1,2.339-6.006l12.341,12.367a8.78,8.78,0,0,1-5.919,2.309Z" transform="translate(-250.277 -35.64)" fill="#387eb9"/>
      <path id="Path_668" data-name="Path 668" d="M341.356,2.56a8.759,8.759,0,0,0-10.744-1.284L342.64,13.3A8.759,8.759,0,0,0,341.356,2.56Z" transform="translate(-303.316 0)" fill="#387eb9"/>
      <path id="Path_669" data-name="Path 669" d="M330.783,1.484A8.968,8.968,0,0,1,335.332.238,8.73,8.73,0,0,1,342.795,13.5Z" transform="translate(-303.475 -0.221)" fill="#387eb9"/>
    </g>
  </g>
</svg>
