<svg xmlns="http://www.w3.org/2000/svg" width="395" height="118" viewBox="0 0 395 118">
  <g id="Group_2599" data-name="Group 2599" transform="translate(-1005 -779)">
    <g id="Group_2569" data-name="Group 2569">
      <g id="Group_2598" data-name="Group 2598">
        <g id="Rectangle_2330" data-name="Rectangle 2330" transform="translate(1005 779)" fill="#efefef" stroke="#707070" stroke-width="1">
          <rect width="395" height="118" stroke="none"/>
          <rect x="0.5" y="0.5" width="394" height="117" fill="none"/>
        </g>
        <path id="Path_693" data-name="Path 693" d="M-31.29-10.906l-.742.308A16,16,0,0,1-30.9-8.652l.756-.336A16.156,16.156,0,0,0-31.29-10.906Zm1.54-.56-.742.308A13.335,13.335,0,0,1-29.33-9.226l.756-.336A16.279,16.279,0,0,0-29.75-11.466Zm-9.2,7.252A18.389,18.389,0,0,1-41.1-.406l1.19.5a20.3,20.3,0,0,0,2.058-3.85A31.12,31.12,0,0,0-36.582-8.12c.056-.308.168-.714.252-1.022l-1.246-.252A21.4,21.4,0,0,1-38.948-4.214Zm6.888-.532A41.953,41.953,0,0,1-30.478.07l1.246-.406c-.364-1.26-1.106-3.4-1.68-4.788a45.259,45.259,0,0,0-2.044-4.424l-1.134.378A35.8,35.8,0,0,1-32.06-4.746ZM-20.034-7.56V-9.436a12.972,12.972,0,0,1,.084-1.4h-1.386A7.812,7.812,0,0,1-21.21-9.45v1.89h-4.13c-.5,0-1.008-.042-1.288-.07v1.2c.28-.028.784-.042,1.316-.042h4.1A6.266,6.266,0,0,1-25-.28l1.092.812a7.336,7.336,0,0,0,3.878-7h3.71c.434,0,1.008.014,1.232.042v-1.19c-.224.028-.756.056-1.218.056Zm7.462,2.87c.434-.042,1.176-.07,1.946-.07H-2.94c.63,0,1.218.056,1.5.07V-6.062c-.308.028-.812.07-1.512.07h-7.672c-.784,0-1.526-.042-1.946-.07ZM7.546-1.75V-8.19h3.36a10.771,10.771,0,0,1,1.19.056V-9.366a9.906,9.906,0,0,1-1.19.084h-7.7A9.271,9.271,0,0,1,2.03-9.366v1.232c.35-.042.91-.056,1.176-.056h3.15v6.44H2.408a9.591,9.591,0,0,1-1.232-.084V-.56C1.61-.6,2.03-.616,2.408-.616h9.254a8.781,8.781,0,0,1,1.162.056V-1.834a9.848,9.848,0,0,1-1.162.084Zm9.548-8.764c.028.266.056.756.056,1.008v4.662c0,.42-.042.868-.056,1.078h1.288c-.028-.252-.042-.714-.042-1.064V-9.506c0-.336.014-.742.042-1.008Zm6.482-.1c.028.336.07.742.07,1.2V-7.2c0,2.646-.168,3.78-1.176,4.942A6.459,6.459,0,0,1,19.11-.392l.91.966A7.478,7.478,0,0,0,23.352-1.47c1.008-1.2,1.456-2.31,1.456-5.67V-9.408c0-.462.028-.868.056-1.2Zm10.612,3a8.416,8.416,0,0,1,.056,1.008c0,2.338-.308,4.34-2.478,5.67a5.412,5.412,0,0,1-1.246.616l1.022.84c3.57-1.778,3.906-4.34,3.906-8.134Zm6.16-2.506a6.914,6.914,0,0,1-.98.084H31.332a14.765,14.765,0,0,1-1.6-.112v1.26a15.854,15.854,0,0,1,1.6-.084H39.3a9.445,9.445,0,0,1-3.052,3.136l.924.742A13.5,13.5,0,0,0,40.656-8.96c.1-.154.28-.364.378-.5Z" transform="translate(1203 843)" fill="#333"/>
      </g>
    </g>
  </g>
</svg>
