<svg xmlns="http://www.w3.org/2000/svg" width="43.105" height="40.6" viewBox="0 0 43.105 40.6">
  <g id="Group_2598" data-name="Group 2598" transform="translate(-690 -255.901)">
    <g id="Group_2505" data-name="Group 2505">
      <g id="NEWSのイラスト素材" transform="translate(690 255.901)">
        <path id="Path_654" data-name="Path 654" d="M74.836,26.119h0Z" transform="translate(-69.008 -25.243)" fill="#77ae20"/>
        <path id="Path_655" data-name="Path 655" d="M41.961,15.825a2.34,2.34,0,0,0-2.317-.045l-3.67,1.988-4.809-2.606a2.349,2.349,0,0,0-2.233,0l-4.806,2.607-4.807-2.606a2.346,2.346,0,0,0-2.233,0l-4.805,2.607L8.616,15.781a2.341,2.341,0,0,0-3.458,2.058V48.6H7.567V17.951l3.6,1.952a2.344,2.344,0,0,0,2.232,0L18.2,17.3,23.012,19.9a2.344,2.344,0,0,0,2.232,0L30.05,17.3,34.86,19.9a2.344,2.344,0,0,0,2.232,0L40.7,17.95V49.269a3.8,3.8,0,0,1-3.8,3.8H8.031a5.623,5.623,0,0,1-5.622-5.622V22.378H0V47.449A8.031,8.031,0,0,0,8.031,55.48H36.895a6.211,6.211,0,0,0,6.21-6.21V17.838A2.343,2.343,0,0,0,41.961,15.825Z" transform="translate(0 -14.88)" fill="#77ae20"/>
        <rect id="Rectangle_55" data-name="Rectangle 55" width="9.067" height="9.776" transform="translate(29.427 21.802)" fill="#77ae20"/>
        <rect id="Rectangle_56" data-name="Rectangle 56" width="13.365" height="1.485" transform="translate(10.726 21.467)" fill="#77ae20"/>
        <rect id="Rectangle_57" data-name="Rectangle 57" width="13.365" height="1.485" transform="translate(10.726 30.138)" fill="#77ae20"/>
        <rect id="Rectangle_58" data-name="Rectangle 58" width="13.365" height="1.485" transform="translate(10.726 25.803)" fill="#77ae20"/>
        <path id="Path_656" data-name="Path 656" d="M127.569,145.585v-4.161h.049l2.348,4.161a.172.172,0,0,0,.166.1h1.159l.1-.1v-6.431l-.1-.1h-1.1l-.1.1v4.17h-.049l-2.338-4.17a.182.182,0,0,0-.166-.1h-1.169l-.1.1v6.431l.1.1h1.1Z" transform="translate(-115.525 -128.434)" fill="#77ae20"/>
        <path id="Path_657" data-name="Path 657" d="M209.695,140.294h2.855l.1-.1v-1.043l-.1-.1H208.3l-.1.1v6.431l.1.1h4.248l.1-.1v-1.043l-.1-.1h-2.855l-.058-.058v-1.374l.058-.059h2.378l.1-.1v-1.032l-.1-.1h-2.378l-.058-.058v-1.315Z" transform="translate(-190.51 -128.434)" fill="#77ae20"/>
        <path id="Path_658" data-name="Path 658" d="M280.338,139.057H279.09a.1.1,0,0,0-.117.1l-.916,4.161h-.02l-1.169-4.161-.117-.1H275.9a.126.126,0,0,0-.127.1l-1.13,4.161h-.02l-.955-4.161a.108.108,0,0,0-.117-.1H272.3c-.068,0-.088.038-.078.1l1.715,6.431.117.1h.974a.127.127,0,0,0,.127-.1l1.159-4.121h.02l1.149,4.121a.127.127,0,0,0,.127.1h.975a.12.12,0,0,0,.127-.1l1.7-6.431C280.425,139.1,280.406,139.057,280.338,139.057Z" transform="translate(-248.855 -128.434)" fill="#77ae20"/>
        <path id="Path_659" data-name="Path 659" d="M385.461,143.269a2.813,2.813,0,0,1-1.734-.682l-.146.01-.74.848.009.165a3.908,3.908,0,0,0,2.553.906c1.715,0,2.6-.887,2.6-2.085s-.721-1.822-2.085-2.007l-.351-.049c-.76-.107-1.033-.351-1.033-.731,0-.419.3-.721.887-.721a2.743,2.743,0,0,1,1.539.506l.136-.029.594-.887c.049-.068.039-.107-.019-.146a3.745,3.745,0,0,0-2.251-.692,2.069,2.069,0,0,0-2.349,2.027c0,1.169.75,1.8,2.095,1.987l.351.049c.789.107,1.023.351,1.023.74C386.542,142.947,386.152,143.269,385.461,143.269Z" transform="translate(-349.793 -127.165)" fill="#77ae20"/>
      </g>
    </g>
  </g>
</svg>
