<svg xmlns="http://www.w3.org/2000/svg" width="17.656" height="17.209" viewBox="0 0 17.656 17.209">
  <path id="Icon_awesome-arrow-right" data-name="Icon awesome-arrow-right" d="M7.507,3.8l.875-.875a.942.942,0,0,1,1.336,0l7.66,7.657a.942.942,0,0,1,0,1.336l-7.66,7.66a.942.942,0,0,1-1.336,0L7.507,18.7a.947.947,0,0,1,.016-1.352l4.748-4.524H.946A.943.943,0,0,1,0,11.882V10.621a.943.943,0,0,1,.946-.946H12.271L7.523,5.152A.94.94,0,0,1,7.507,3.8Z" transform="translate(0 -2.647)" fill="#f77e13"/>
</svg>
