<svg id="万年筆の無料アイコン素材" xmlns="http://www.w3.org/2000/svg" width="40.698" height="40.699" viewBox="0 0 40.698 40.699">
  <path id="Path_672" data-name="Path 672" d="M12.422,307.313l-2.43-2.43c-1.464.878-4.7,2.325-4.7,2.325a2.325,2.325,0,0,0-1.4,1.736l-1.637,7.628-.939.94A1.3,1.3,0,1,0,2.6,318.794l.94-.939,7.628-1.637a2.325,2.325,0,0,0,1.736-1.4s1.449-3.232,2.326-4.7l-2.43-2.43Zm-2.627,5.015a1.42,1.42,0,1,1,0-2.008A1.422,1.422,0,0,1,9.794,312.327Z" transform="translate(-0.003 -279.412)" fill="#fab510"/>
  <path id="Path_673" data-name="Path 673" d="M177.112,319.734l-.267-.265-.319-.319Z" transform="translate(-162.478 -293.75)" fill="#fab510"/>
  <path id="Path_674" data-name="Path 674" d="M145.138,240.33a1.535,1.535,0,0,1-1.346.41l-.7.7,2.778,2.779,3.341,3.34.7-.7a1.537,1.537,0,0,1,.41-1.348l2.4-2.4-5.181-5.181S145.722,239.744,145.138,240.33Z" transform="translate(-131.421 -218.529)" fill="#fab510"/>
  <path id="Path_675" data-name="Path 675" d="M235.913,1.658c-2.4-2.4-5.008-2.177-7.729.545S217.636,14.666,215.792,16.51l5.268,5.27c1.845-1.844,11.587-9.671,14.308-12.392S238.308,4.053,235.913,1.658Zm-2.377,4.228-8.2,8.2a.513.513,0,0,1-.725,0l-1.126-1.125a.514.514,0,0,1,0-.726l8.2-8.2a.512.512,0,0,1,.726,0l1.125,1.125A.515.515,0,0,1,233.537,5.885Z" transform="translate(-196.872 -0.001)" fill="#fab510"/>
</svg>
